<svg width="17" height="17" viewBox="0 0 17 17" fill="none" xmlns="http://www.w3.org/2000/svg">
<path d="M4.24562 7.5386C3.84369 7.5386 3.4755 7.5386 3.10807 7.5386C3.01213 7.5386 2.89459 7.54884 2.87297 7.4347C2.86549 7.3496 2.89132 7.26492 2.94502 7.19847C3.43796 6.58571 3.93697 5.97863 4.43446 5.37003C4.46404 5.33212 4.49134 5.29685 4.54063 5.23391C4.32715 5.23391 4.14097 5.23391 3.95479 5.23391C3.86303 5.23391 3.75382 5.24073 3.73145 5.13304C3.72102 5.05307 3.74047 4.97206 3.78605 4.90553C4.50322 3.88173 5.22367 2.8602 5.94741 1.84095C6.08051 1.65325 6.18554 1.65135 6.31826 1.84095C6.81095 2.53663 7.30301 3.23256 7.79443 3.92875C7.82363 3.97008 7.8551 4.00989 7.8934 4.06108C8.20661 3.61819 8.51261 3.18592 8.81823 2.75289C9.0283 2.45561 9.09201 2.45523 9.30397 2.75289L9.78213 3.42746C10.0259 3.17265 10.2584 2.92466 10.4965 2.68198C10.845 2.32744 11.1973 1.97631 11.5484 1.62405C11.7065 1.46517 11.7566 1.4591 11.9314 1.60471C12.7864 2.31531 13.2555 3.22915 13.3514 4.33713C13.3544 4.37277 13.356 4.40804 13.3605 4.47288C13.5641 4.27836 13.7473 4.10241 13.9323 3.92913C14.0461 3.82182 14.1598 3.81537 14.2512 3.93368C14.817 4.65792 15.269 5.42843 15.2526 6.39346C15.2257 7.99173 14.1761 9.58659 12.3382 9.90207C12.3139 9.90891 12.29 9.91753 12.2669 9.92785L12.637 10.3647C12.6799 10.4151 12.7231 10.4655 12.7656 10.5164C12.8289 10.5922 12.9093 10.6635 12.8535 10.7787C12.802 10.8853 12.7019 10.8758 12.6071 10.8762C12.2855 10.8762 11.9638 10.8762 11.642 10.8762C11.5969 10.8762 11.5518 10.8804 11.4797 10.8842C11.534 10.9463 11.57 10.9884 11.6068 11.0298L13.378 13.0106C13.4043 13.0377 13.4275 13.0677 13.447 13.1001C13.461 13.1223 13.4694 13.1476 13.4713 13.1737C13.4733 13.1999 13.4688 13.2261 13.4582 13.2501C13.4476 13.2741 13.4313 13.2952 13.4107 13.3114C13.3901 13.3276 13.3658 13.3385 13.34 13.3432C13.2842 13.3532 13.2275 13.3568 13.1709 13.3542C12.116 13.3542 11.061 13.3542 10.0058 13.3542H9.82042V13.5362C9.82042 14.105 9.82042 14.6738 9.82042 15.2425C9.82042 15.4556 9.77416 15.5 9.56068 15.5C9.26719 15.5 8.97383 15.5 8.68059 15.5C8.49858 15.5 8.44398 15.4454 8.4436 15.2634C8.4436 14.6853 8.4436 14.1069 8.4436 13.5282V13.3652H6.89083V13.8365C6.89083 14.0451 6.89311 14.2536 6.89083 14.4625C6.88856 14.6104 6.83092 14.67 6.68342 14.6715C6.36667 14.675 6.04979 14.675 5.7328 14.6715C5.57809 14.6715 5.52007 14.6089 5.51931 14.4534C5.51931 14.1406 5.51931 13.8278 5.51931 13.515V13.3549C5.3483 13.3549 5.18828 13.3652 5.03092 13.3504C4.9503 13.3447 4.87452 13.3098 4.81782 13.2522C4.7507 13.1676 4.82047 13.0857 4.88342 13.0159C5.02258 12.862 5.15947 12.7062 5.32403 12.523H2.17982C2.13735 12.523 2.08995 12.5344 2.05317 12.5192C1.9925 12.4949 1.91098 12.465 1.88974 12.4153C1.86851 12.3656 1.90036 12.2845 1.92766 12.2257C1.94738 12.1802 1.99364 12.1465 2.02852 12.1078C2.60994 11.4584 3.19073 10.8087 3.77088 10.1588C3.79553 10.1315 3.81676 10.1015 3.85241 10.0568C3.79553 10.0526 3.75572 10.0473 3.7159 10.0473C3.34695 10.0473 2.97763 10.0473 2.60868 10.0473C2.50706 10.0473 2.3933 10.0697 2.33984 9.9434C2.29092 9.82737 2.3732 9.75684 2.43691 9.68214C3.00063 9.01781 3.56486 8.35373 4.12959 7.6899C4.15993 7.64705 4.1914 7.6061 4.24562 7.5386ZM12.3322 10.5342C12.171 10.3446 12.0444 10.1846 11.9056 10.0367C11.8579 9.98963 11.7949 9.96136 11.7281 9.95705C10.5803 9.92331 9.63576 9.47131 8.93768 8.55634C8.36094 7.80062 8.10347 6.94707 8.30633 5.99228C8.44474 5.34122 8.76136 4.7713 9.14396 4.23627C9.27553 4.05274 9.41545 3.87566 9.55234 3.69441L9.0594 2.99974L7.13427 5.72306C7.36178 5.72306 7.55137 5.71396 7.74324 5.72723C7.82363 5.73291 7.92677 5.76515 7.97303 5.82278C8.04242 5.90886 7.96962 5.99645 7.90705 6.07305C7.40804 6.67974 6.9103 7.28821 6.41381 7.89845C6.38613 7.93258 6.36035 7.96822 6.31522 8.02775H7.42624C7.52976 8.02775 7.64465 8.01258 7.69736 8.13279C7.74627 8.24427 7.6693 8.31897 7.60408 8.39594C7.03581 9.06356 6.4688 9.73156 5.90305 10.3999C5.87347 10.4348 5.84617 10.4716 5.80294 10.5262C5.86968 10.53 5.91405 10.5346 5.95879 10.5346C6.32774 10.5346 6.69669 10.5346 7.06564 10.5346C7.16498 10.5346 7.27381 10.522 7.325 10.635C7.37619 10.748 7.30414 10.8246 7.23324 10.8967L7.22376 10.9069C6.63981 11.5604 6.05586 12.2137 5.47191 12.8669C5.43703 12.9048 5.4048 12.9477 5.35816 13.0031H12.9104C12.8611 12.9469 12.8278 12.9083 12.7936 12.8703C12.1972 12.203 11.5988 11.5371 11.0073 10.8652C10.9595 10.8114 10.9208 10.7006 10.9447 10.6453C10.9686 10.5899 11.074 10.5478 11.148 10.5391C11.2896 10.5293 11.4316 10.5277 11.5734 10.5342H12.3322ZM6.1298 2.1716L4.20733 4.89188C4.43712 4.89188 4.63543 4.88316 4.83223 4.89605C4.90806 4.90098 5.02182 4.9389 5.04268 4.99123C5.06694 5.05455 5.0332 5.16793 4.98542 5.22822C4.55239 5.77387 4.10684 6.3089 3.66623 6.84772C3.57788 6.95579 3.49029 7.06462 3.38298 7.19695H3.55247C3.89374 7.19695 4.23501 7.1924 4.574 7.2015C4.63922 7.2015 4.73743 7.24549 4.75791 7.29516C4.78179 7.3528 4.74008 7.44001 4.71999 7.51206C4.71316 7.53708 4.6851 7.55567 4.66652 7.57766L2.97421 9.56952C2.94312 9.60744 2.91354 9.64536 2.86728 9.70224H3.05688C3.43985 9.70224 3.82321 9.69731 4.20619 9.70755C4.24387 9.71036 4.28045 9.72156 4.31326 9.74032C4.34606 9.75908 4.37425 9.78494 4.39578 9.816C4.41967 9.86301 4.36962 9.95061 4.34725 10.0185C4.3408 10.039 4.31767 10.0545 4.30175 10.0723C3.70819 10.7359 3.11489 11.3995 2.52184 12.0631C2.49492 12.093 2.47103 12.126 2.43615 12.1696C2.46415 12.1742 2.49238 12.1774 2.52071 12.1791C3.5282 12.1791 4.5357 12.1791 5.5432 12.1764C5.60134 12.1706 5.65532 12.1436 5.69488 12.1006C6.03652 11.7271 6.37248 11.3479 6.71034 10.9687C6.72968 10.9467 6.74408 10.9202 6.77518 10.8751H6.61327C6.24432 10.8751 5.87537 10.88 5.5068 10.8709C5.42717 10.8686 5.32327 10.836 5.27626 10.7791C5.20535 10.6931 5.27891 10.6058 5.34299 10.5304C5.91708 9.85619 6.49028 9.18136 7.0626 8.50591C7.09407 8.46799 7.12327 8.43007 7.17181 8.36826H6.03425C5.93907 8.36826 5.82115 8.37926 5.79991 8.26361C5.79335 8.17848 5.81937 8.09404 5.87271 8.02737C6.17834 7.64136 6.49344 7.26293 6.80513 6.88185C7.02013 6.61907 7.23475 6.35592 7.46302 6.07646C7.40425 6.07077 7.36823 6.06432 7.33258 6.06432C7.1574 6.06432 6.98221 6.0685 6.80741 6.06053C6.65573 6.05409 6.59317 5.93085 6.66446 5.79965C6.68668 5.76339 6.71099 5.72845 6.73726 5.695C7.05085 5.25059 7.36481 4.80618 7.68181 4.35761L6.21095 2.27777C6.18933 2.24743 6.16583 2.21937 6.1298 2.1716ZM14.07 4.27153C14.0229 4.31552 13.9752 4.36102 13.9274 4.40652C13.7249 4.59915 13.5266 4.7967 13.3169 4.98061C13.2699 5.02194 13.1683 5.04659 13.1171 5.02308C13.0659 4.99957 13.0374 4.90932 13.0181 4.84297C13.0029 4.79064 13.0181 4.72921 13.0181 4.67309C13.0325 3.84153 12.7876 3.09492 12.2745 2.44234C12.1228 2.24743 11.9408 2.0749 11.7782 1.8982C11.3516 2.32062 10.944 2.71497 10.5458 3.12146C9.99258 3.68834 9.47006 4.28101 9.07419 4.97378C8.81103 5.4345 8.62144 5.92175 8.58579 6.45754C8.5183 7.48134 9.17467 8.76072 10.4112 9.31395C10.4312 9.31861 10.4517 9.32078 10.4722 9.3204C10.4472 9.28817 10.4343 9.26959 10.4188 9.25139C9.91143 8.60336 9.89475 7.77787 10.39 7.12112C10.7805 6.60315 11.184 6.09504 11.5836 5.58389C11.6883 5.45004 11.7945 5.44663 11.8976 5.57897C12.3117 6.10983 12.7318 6.63272 13.1311 7.17458C13.5831 7.78962 13.5588 8.60184 13.097 9.21309C13.0712 9.24722 13.0473 9.28286 13.0117 9.33329C13.8459 9.01705 14.495 8.21507 14.7605 7.35318C15.1142 6.19818 14.8283 5.18802 14.07 4.27153ZM11.7425 5.93085C11.3614 6.42379 10.9841 6.89019 10.63 7.37441C10.4317 7.64754 10.3423 7.98475 10.3793 8.32023C10.4162 8.65571 10.5769 8.96539 10.8298 9.18882C11.079 9.41124 11.4008 9.53505 11.7348 9.537C12.0688 9.53896 12.3921 9.41892 12.6438 9.19944C13.1747 8.73228 13.2741 7.94812 12.8562 7.37517C12.5001 6.89057 12.1217 6.42341 11.7406 5.93085H11.7425ZM8.79548 13.3629V15.1542H9.46968V13.3618L8.79548 13.3629ZM6.53857 14.3241V13.3663H5.86892V14.323L6.53857 14.3241Z" fill="#667085"/>
</svg>
