<svg width="20" height="17" viewBox="0 0 20 17" fill="none" xmlns="http://www.w3.org/2000/svg">
<path d="M1 7.17449C1.10919 6.94522 1.2637 6.77305 1.53238 6.7291C1.5641 6.72366 1.59581 6.64619 1.60669 6.59725C1.66831 6.32132 1.72358 6.04448 1.78022 5.76719C1.86042 5.37618 2.06702 5.204 2.46348 5.204C4.15033 5.204 5.83763 5.204 7.52448 5.19947C7.62852 5.19644 7.7293 5.16253 7.81401 5.10206C8.33325 4.71965 8.8475 4.33015 9.35678 3.93354C9.40941 3.88152 9.43952 3.8109 9.4406 3.7369C9.44694 3.17054 9.44331 2.60418 9.44467 2.03827C9.44467 1.64317 9.59193 1.5 9.9911 1.5C10.4383 1.5 10.8855 1.5 11.3327 1.5C11.6535 1.5 11.8161 1.65768 11.822 1.97574C11.8269 2.22494 11.8269 2.47399 11.822 2.72289C11.8157 3.04005 11.6526 3.19727 11.3322 3.19863C10.8792 3.19863 10.4261 3.19863 9.95531 3.19863C9.95531 3.41521 9.95123 3.61728 9.95893 3.81846C9.9698 3.86549 9.99794 3.90672 10.0378 3.93399C10.5507 4.32546 11.0631 4.71693 11.5828 5.09934C11.6669 5.16073 11.7674 5.1956 11.8714 5.19947C13.5478 5.20536 15.2243 5.20355 16.9007 5.204C17.3465 5.204 17.5314 5.35533 17.6257 5.79755C17.6818 6.05717 17.738 6.31679 17.791 6.57732C17.8096 6.66793 17.8332 6.7368 17.9487 6.75855C18.1834 6.79888 18.3003 6.98193 18.4018 7.1763V7.78797C18.318 8.03581 18.1576 8.20391 17.8921 8.26326V14.7945C17.8921 15.2766 17.6687 15.5 17.1862 15.5H2.18075C1.74488 15.5 1.51063 15.2639 1.50973 14.8276C1.50973 14.4765 1.50973 14.1253 1.50973 13.7742C1.50973 13.5789 1.61031 13.4606 1.76663 13.462C1.92294 13.4634 2.01764 13.5816 2.01854 13.7792C2.01854 14.119 2.02534 14.4588 2.01628 14.7986C2.0122 14.9481 2.06159 14.9939 2.21156 14.993C2.92472 14.9866 3.63834 14.9898 4.35195 14.9898H4.48788C4.52549 14.718 4.43804 14.4398 4.61928 14.206C4.81003 13.9595 5.08279 13.9586 5.36551 13.9735C5.36551 13.834 5.36551 13.7212 5.36551 13.6084C5.36551 13.3043 5.49102 13.0896 5.78417 12.9772C5.80838 12.9631 5.82887 12.9434 5.84393 12.9197C5.85898 12.8961 5.86816 12.8692 5.87071 12.8413C5.87584 11.6913 5.87584 10.5415 5.87071 9.39191C5.86662 9.3622 5.85558 9.33388 5.8385 9.30924C5.82142 9.2846 5.79877 9.26434 5.77239 9.25009C5.50642 9.13953 5.37322 8.94471 5.36461 8.66107C5.36189 8.53285 5.36461 8.40417 5.36461 8.27278H2.01945V12.3959C2.02334 12.4524 2.02151 12.5092 2.01401 12.5653C1.98638 12.6972 1.90165 12.7774 1.76527 12.7778C1.62889 12.7783 1.54371 12.6985 1.51562 12.5672C1.50789 12.511 1.50607 12.4542 1.51018 12.3977C1.51018 11.0837 1.51018 9.76978 1.51018 8.45582V8.25601C1.24059 8.20617 1.08699 8.02947 1.00045 7.7857L1 7.17449ZM14.9098 14.9903C15.6742 14.9903 16.4209 14.9848 17.168 14.9944C17.3465 14.9944 17.3842 14.9332 17.3837 14.7678C17.3792 12.6622 17.3781 10.5565 17.3805 8.45084V8.2696H14.0331C14.0331 8.40055 14.0331 8.52379 14.0331 8.64657C14.0299 8.93746 13.8972 9.13863 13.6253 9.25145C13.5991 9.266 13.5767 9.28649 13.5599 9.31128C13.543 9.33607 13.5322 9.36446 13.5284 9.39417C13.5229 10.542 13.5229 11.6912 13.5284 12.8417C13.5309 12.8696 13.5401 12.8965 13.5551 12.9202C13.5702 12.9438 13.5907 12.9635 13.6149 12.9777C13.9076 13.0896 14.0349 13.3039 14.034 13.6079C14.034 13.7243 14.034 13.8412 14.034 13.9704C14.3249 13.9609 14.5909 13.9627 14.7784 14.2055C14.9574 14.4393 14.8736 14.7157 14.9098 14.9903ZM5.1879 7.74402H14.2017C14.1563 7.70596 14.1364 7.68331 14.111 7.66428C12.6823 6.57988 11.2542 5.49489 9.82663 4.40928C9.71064 4.31867 9.63905 4.36126 9.54617 4.43194C8.27752 5.39853 7.0066 6.36346 5.73342 7.32672C5.55989 7.45812 5.38726 7.59133 5.1879 7.74402ZM8.43066 13.9649C8.43066 13.8091 8.42704 13.6682 8.43066 13.5273C8.43791 13.3134 8.52626 13.1195 8.72154 13.0456C8.92997 12.9677 8.95488 12.8408 8.93721 12.6605C8.92951 12.5821 8.93721 12.5024 8.93721 12.4231C8.93721 11.4263 8.93721 10.4295 8.93721 9.43268C8.93721 9.35656 8.95489 9.2809 8.84433 9.2442C8.55526 9.1486 8.42976 8.93111 8.4284 8.63389C8.4284 8.51246 8.4284 8.39103 8.4284 8.27142H7.91776C7.91776 8.41142 7.91776 8.541 7.91776 8.67059C7.91414 8.88218 7.84663 9.09377 7.65089 9.16581C7.3949 9.26006 7.39263 9.43087 7.40849 9.63839C7.41438 9.71722 7.40849 9.79697 7.40849 9.87626C7.40849 10.8495 7.40849 11.8229 7.40849 12.7964C7.40849 12.8725 7.39127 12.9482 7.50137 12.9844C7.79135 13.0796 7.91641 13.2975 7.91731 13.5948C7.91731 13.7162 7.91731 13.8381 7.91731 13.964L8.43066 13.9649ZM10.9757 8.27051C10.9757 8.40191 10.9757 8.52515 10.9757 8.64793C10.9725 8.93836 10.8397 9.13953 10.5679 9.25281C10.5417 9.26723 10.5192 9.28763 10.5024 9.31235C10.4855 9.33707 10.4748 9.36541 10.4709 9.39508C10.4655 10.5429 10.4655 11.6918 10.4709 12.8417C10.4733 12.8696 10.4824 12.8964 10.4973 12.9201C10.5122 12.9437 10.5325 12.9635 10.5566 12.9777C10.8497 13.0896 10.9775 13.3039 10.9766 13.6074C10.9766 13.7243 10.9766 13.8412 10.9766 13.9631H11.4863C11.4863 13.8322 11.4863 13.7089 11.4863 13.5862C11.4895 13.2957 11.6195 13.0936 11.8941 12.9813C11.9203 12.9668 11.9427 12.9463 11.9596 12.9215C11.9764 12.8967 11.9872 12.8683 11.991 12.8386C11.9965 11.6907 11.9965 10.5418 11.991 9.39191C11.9885 9.36405 11.9793 9.33721 11.9644 9.31358C11.9494 9.28995 11.929 9.27021 11.9049 9.25598C11.6041 9.14135 11.4804 8.91888 11.4849 8.60897C11.4849 8.49796 11.4849 8.38695 11.4849 8.27096L10.9757 8.27051ZM17.3035 6.73273C17.2451 6.45045 17.1843 6.18585 17.1381 5.91717C17.1118 5.76402 17.0516 5.70603 16.8835 5.70693C15.4567 5.71463 14.029 5.71101 12.6027 5.71101H12.4414C12.7133 5.95794 13.01 6.15322 13.2701 6.39064C13.4053 6.52111 13.5678 6.61992 13.7458 6.67994C13.9238 6.73996 14.1129 6.75969 14.2995 6.73771C14.6534 6.70645 15.0122 6.73046 15.3693 6.73137C15.5809 6.73137 15.6973 6.82561 15.695 6.98963C15.6928 7.15364 15.5772 7.23928 15.3616 7.24064C15.2537 7.24064 15.1463 7.24064 15.0385 7.24064H14.4042C14.5981 7.38835 14.7567 7.49528 14.8985 7.62078C15.0181 7.7268 15.1459 7.75671 15.3004 7.75308C16.0589 7.74719 16.8178 7.75082 17.5767 7.75036C17.9233 7.75036 17.8862 7.78344 17.8966 7.42867C17.9007 7.27462 17.8418 7.23475 17.6977 7.23837C17.3579 7.24653 17.0181 7.24245 16.6782 7.23837C16.4938 7.23837 16.3837 7.13643 16.3855 6.98147C16.3874 6.82651 16.4979 6.73182 16.6837 6.73001C16.8821 6.73137 17.0847 6.73318 17.3012 6.73318L17.3035 6.73273ZM14.3888 14.9821V14.7597C14.3888 14.4805 14.3888 14.4805 14.1142 14.4805C11.2223 14.4805 8.33038 14.4805 5.43846 14.4805C4.94912 14.4805 5.00984 14.3709 5.01346 14.9422C5.01655 14.9556 5.02191 14.9683 5.02932 14.9799L14.3888 14.9821ZM6.96854 5.74998L6.95767 5.71327H3.5672C3.19929 5.71327 2.83139 5.7101 2.46348 5.7169C2.40729 5.7169 2.31215 5.75587 2.30308 5.79347C2.22787 6.09885 2.16716 6.40831 2.10508 6.71415C2.12041 6.72143 2.13653 6.7269 2.15311 6.73046C3.30094 6.73046 4.44997 6.73046 5.60021 6.73046C5.64452 6.72989 5.68768 6.71634 5.72436 6.69149C6.1406 6.37947 6.55533 6.06563 6.96854 5.74998ZM6.88155 12.9455V9.29223H6.40037V12.9455H6.88155ZM9.45827 9.28769V12.9414H9.94081V9.28769H9.45827ZM12.5166 9.28769V12.9414H12.9987V9.28769H12.5166ZM4.95728 7.27553L4.94686 7.24245H1.7997C1.50882 7.24245 1.50882 7.24245 1.50973 7.53922C1.5104 7.55054 1.5104 7.56189 1.50973 7.57321C1.49024 7.71865 1.56092 7.75444 1.69685 7.75444C2.53416 7.74946 3.37101 7.75218 4.20787 7.75082C4.25726 7.75082 4.31797 7.75399 4.35422 7.72816C4.55856 7.58227 4.75701 7.42776 4.95728 7.27553ZM11.3078 2.02286H9.96527V2.67531H11.3078V2.02286ZM7.39626 8.27549H5.8766C5.8766 8.3865 5.88158 8.49252 5.8766 8.59809C5.86935 8.72677 5.91738 8.77933 6.05285 8.77661C6.35732 8.76891 6.66271 8.77389 6.96718 8.77389C7.42798 8.77163 7.42798 8.77163 7.39626 8.27323V8.27549ZM8.93676 8.27232C8.93676 8.39556 8.94039 8.50249 8.93676 8.60942C8.93087 8.73311 8.98207 8.77888 9.10712 8.77616C9.41749 8.76981 9.72831 8.77389 10.0387 8.77389C10.4945 8.77389 10.4949 8.77389 10.46 8.30857C10.4559 8.29565 10.4497 8.28343 10.4419 8.27232H8.93676ZM13.513 8.27776H11.9969C11.9969 8.39783 12.001 8.5043 11.9969 8.61169C11.991 8.73765 12.0472 8.77842 12.1696 8.77616C12.4745 8.76981 12.7794 8.77389 13.0843 8.77389C13.5601 8.77163 13.5601 8.77163 13.5098 8.27549L13.513 8.27776ZM5.88883 13.9581H7.40532C7.40532 13.8385 7.40124 13.7316 7.40532 13.6247C7.41121 13.4996 7.35684 13.4566 7.2336 13.4593C6.92867 13.4656 6.62374 13.4593 6.31881 13.4593C5.8399 13.4611 5.8399 13.4611 5.88883 13.9581ZM10.465 13.9618C10.465 13.8489 10.4596 13.7474 10.465 13.6469C10.4736 13.5109 10.4261 13.4543 10.2811 13.4584C9.97071 13.4674 9.65989 13.4611 9.34953 13.4611C8.89055 13.4611 8.87514 13.4801 8.95398 13.9595L10.465 13.9618ZM13.5229 13.9618C13.5229 13.8295 13.5229 13.7171 13.5229 13.6043C13.5229 13.5091 13.4889 13.4584 13.3838 13.4588C12.9661 13.4616 12.5479 13.4566 12.1306 13.4652C12.1017 13.471 12.0748 13.4841 12.0524 13.5032C12.03 13.5223 12.0127 13.5468 12.0024 13.5744C11.9916 13.7032 11.9895 13.8326 11.996 13.9618H13.5229Z" fill="#667085"/>
<path d="M3.24976 9.69376C3.24976 9.45662 3.24976 9.21948 3.24976 8.98234C3.25279 8.68035 3.41159 8.50666 3.68983 8.50296C3.93878 8.49956 4.18744 8.49956 4.43581 8.50296C4.70582 8.50666 4.86852 8.67989 4.87111 8.96983C4.87429 9.45585 4.87429 9.94155 4.87111 10.427C4.87111 10.7248 4.70495 10.8957 4.42326 10.8985C4.18008 10.9012 3.9369 10.9012 3.69372 10.8985C3.41419 10.8952 3.25322 10.722 3.24976 10.4228C3.24803 10.1796 3.24976 9.93692 3.24976 9.69376ZM3.73959 10.3672H4.37437V9.03745H3.73959V10.3672Z" fill="#667085"/>
<path d="M4.87128 12.9008C4.87128 13.1434 4.87387 13.3865 4.87128 13.6291C4.86781 13.9193 4.70637 14.092 4.43844 14.0976C4.18479 14.1013 3.93028 14.1022 3.67664 14.0976C3.42299 14.0929 3.25332 13.917 3.25159 13.6374C3.24813 13.146 3.24813 12.6547 3.25159 12.1633C3.25159 11.8855 3.41737 11.7082 3.67707 11.7041C3.93678 11.6999 4.19648 11.699 4.45618 11.7041C4.70637 11.7096 4.86825 11.8851 4.87301 12.155C4.87474 12.4036 4.87128 12.6522 4.87128 12.9008ZM4.37308 13.5703V12.2379H3.74373V13.5703H4.37308Z" fill="#667085"/>
<path d="M16.244 9.71414C16.244 9.94572 16.244 10.1773 16.244 10.4089C16.2418 10.722 16.0834 10.8952 15.7961 10.8985C15.5535 10.9012 15.3104 10.9012 15.0669 10.8985C14.7869 10.8952 14.6242 10.7224 14.6225 10.4232C14.6199 9.9434 14.6199 9.46341 14.6225 8.98326C14.6225 8.68081 14.7834 8.50666 15.0617 8.50296C15.3101 8.49956 15.5586 8.49956 15.8073 8.50296C16.0778 8.50666 16.2401 8.67943 16.2435 8.9689C16.2466 9.2167 16.244 9.46542 16.244 9.71414ZM15.1162 9.02958V10.3667H15.7463V9.02958H15.1162Z" fill="#667085"/>
<path d="M14.6215 12.8858C14.6215 12.6542 14.6215 12.4227 14.6215 12.1911C14.6236 11.8785 14.7815 11.7058 15.0696 11.703C15.318 11.7002 15.5667 11.6993 15.815 11.703C16.0746 11.7072 16.2398 11.8813 16.242 12.1601C16.246 12.6519 16.246 13.1436 16.242 13.6351C16.242 13.9222 16.0741 14.094 15.8025 14.0982C15.5542 14.1016 15.3057 14.1016 15.0571 14.0982C14.7876 14.094 14.6245 13.9199 14.6215 13.6314C14.6193 13.3831 14.6215 13.1345 14.6215 12.8858ZM15.7462 13.5707V12.2379H15.1168V13.5707H15.7462Z" fill="#667085"/>
</svg>
