<svg width="12" height="13" viewBox="0 0 12 13" fill="none" xmlns="http://www.w3.org/2000/svg">
<g clip-path="url(#clip0_70_1559)">
<path d="M5.86582 12.5C5.59448 12.4336 5.35333 12.3209 5.24198 12.0834C5.18047 11.9504 5.14849 11.8083 5.14773 11.6648C5.14214 9.58734 5.1408 7.50984 5.1437 5.43223C5.1437 4.05747 5.1437 2.68281 5.1437 1.30824C5.1437 0.91513 5.37848 0.625948 5.76923 0.528478C5.88212 0.500572 6.00039 0.493384 6.1166 0.507365C6.23282 0.521346 6.34449 0.556194 6.4446 0.609725C6.5447 0.663255 6.6311 0.734313 6.69836 0.818442C6.76562 0.902572 6.8123 0.997959 6.83547 1.09862C6.85057 1.17165 6.85765 1.24577 6.8566 1.31998C6.8566 4.77235 6.85716 8.22452 6.85828 11.6765C6.85828 12.0106 6.71607 12.2672 6.37027 12.4231C6.29392 12.453 6.2155 12.4787 6.13549 12.5H5.86582Z" fill="#667085"/>
<path d="M7.71356 6.5C7.71356 5.39083 7.71356 4.28167 7.71356 3.17251C7.71356 2.7885 7.95002 2.50108 8.33774 2.4039C8.45078 2.37561 8.56929 2.3681 8.68581 2.38184C8.80233 2.39558 8.91434 2.43027 9.01479 2.48374C9.11525 2.53721 9.20199 2.60829 9.26954 2.69252C9.3371 2.77674 9.38401 2.87229 9.40734 2.97316C9.42209 3.04227 9.42917 3.11248 9.42847 3.18278C9.42847 5.39328 9.42847 7.60368 9.42847 9.81399C9.42847 10.1281 9.29632 10.3771 8.975 10.5315C8.8582 10.5873 8.72804 10.6183 8.59504 10.6219C8.46204 10.6256 8.32992 10.6018 8.20936 10.5525C8.0888 10.5032 7.98317 10.4298 7.901 10.3382C7.81884 10.2465 7.76244 10.1393 7.73637 10.0251C7.72016 9.94436 7.71297 9.86245 7.7149 9.78052C7.71334 8.68701 7.71289 7.59351 7.71356 6.5Z" fill="#667085"/>
<path d="M1.71485 6.51116C1.71485 7.49114 1.71485 8.47133 1.71485 9.45171C1.71485 9.83513 1.47705 10.1228 1.08932 10.2194C0.976425 10.2473 0.858157 10.2545 0.741941 10.2405C0.625726 10.2265 0.514072 10.1916 0.413985 10.1381C0.313898 10.0845 0.227538 10.0134 0.160327 9.92925C0.0931165 9.84509 0.0465036 9.74967 0.0234154 9.649C0.00815888 9.57608 0.00108368 9.50204 0.00228699 9.42793C0.00228699 7.47539 0.00161626 5.52275 0.000274658 3.57002C0.000274658 3.25148 0.128396 2.99812 0.455413 2.84134C0.572352 2.78578 0.702575 2.75507 0.835573 2.75166C0.968571 2.74826 1.10062 2.77227 1.22107 2.82176C1.34151 2.87124 1.44698 2.94482 1.52897 3.03655C1.61095 3.12828 1.66716 3.23559 1.69305 3.34983C1.70847 3.42668 1.71555 3.50463 1.71418 3.58265C1.71552 4.55872 1.71574 5.53489 1.71485 6.51116Z" fill="#667085"/>
<path d="M2.57185 6.49296C2.57185 6.00091 2.56682 5.50886 2.57185 5.0171C2.57923 4.47397 3.13666 4.12578 3.7159 4.29547C4.05768 4.39558 4.28139 4.68036 4.2834 5.02943C4.28642 5.51356 4.2834 5.99827 4.2834 6.4818C4.2834 6.9809 4.28877 7.48146 4.2834 7.98114C4.27602 8.52427 3.71825 8.87246 3.13935 8.70277C2.79724 8.60266 2.57386 8.31788 2.57185 7.96881C2.56983 7.47676 2.57185 6.98501 2.57185 6.49296Z" fill="#667085"/>
<path d="M11.9983 6.5C11.9983 6.99176 12.003 7.48381 11.9983 7.97586C11.9919 8.52486 11.4281 8.87657 10.8472 8.7013C10.5078 8.59914 10.2878 8.31348 10.2864 7.96235C10.2844 7.29885 10.2864 6.63505 10.2864 5.97126C10.2864 5.64831 10.2787 5.32302 10.2888 4.99919C10.3072 4.40557 11.0072 4.05972 11.5821 4.35947C11.8715 4.51008 11.9997 4.74495 12.0003 5.03472C11.9997 5.52344 11.999 6.01187 11.9983 6.5Z" fill="#667085"/>
</g>
<defs>
<clipPath id="clip0_70_1559">
<rect width="12" height="12" fill="white" transform="translate(0 0.5)"/>
</clipPath>
</defs>
</svg>
