<svg width="25" height="25" viewBox="0 0 25 25" fill="none" xmlns="http://www.w3.org/2000/svg">
<path d="M12.5 22.5C18.0228 22.5 22.5 18.0228 22.5 12.5C22.5 6.97715 18.0228 2.5 12.5 2.5C6.97715 2.5 2.5 6.97715 2.5 12.5C2.5 18.0228 6.97715 22.5 12.5 22.5Z" stroke="#667085" stroke-width="2" stroke-linecap="round" stroke-linejoin="round"/>
<path d="M15.2221 8.76596C15.7107 8.60312 15.9549 8.52169 16.1174 8.57962C16.2587 8.63003 16.37 8.74127 16.4204 8.88263C16.4783 9.04507 16.3969 9.28935 16.234 9.77789L14.7465 14.2405C14.7001 14.3797 14.6769 14.4492 14.6374 14.507C14.6024 14.5582 14.5582 14.6024 14.507 14.6374C14.4492 14.6769 14.3797 14.7001 14.2405 14.7465L9.77789 16.234C9.28935 16.3969 9.04507 16.4783 8.88263 16.4204C8.74127 16.37 8.63003 16.2587 8.57962 16.1174C8.52169 15.9549 8.60312 15.7107 8.76596 15.2221L10.2535 10.7595C10.2999 10.6203 10.3231 10.5508 10.3626 10.493C10.3976 10.4418 10.4418 10.3976 10.493 10.3626C10.5508 10.3231 10.6203 10.2999 10.7595 10.2535L15.2221 8.76596Z" stroke="#667085" stroke-width="2" stroke-linecap="round" stroke-linejoin="round"/>
</svg>
