<svg width="17" height="17" viewBox="0 0 17 17" fill="none" xmlns="http://www.w3.org/2000/svg">
<path d="M15.4018 12.3828V15.5H10.0424V15.0304H10.3764C10.3596 14.9827 10.3498 14.9484 10.3363 14.9159C10.1635 14.5003 9.99429 14.0832 9.81565 13.6702C9.54987 13.0551 9.08357 12.719 8.40872 12.7047C7.77653 12.6916 7.24643 13.0587 6.98685 13.6698C6.81112 14.0843 6.6394 14.5003 6.46659 14.9159C6.45237 14.9506 6.44362 14.9889 6.42721 15.0399H6.76117V15.5H1.40179V15.0352H1.85971V8.03516C1.68435 8.03078 1.49841 8.06615 1.40179 7.86964V4.45312C1.57607 4.27375 1.75034 4.0945 1.92461 3.91536C2.05804 3.77828 2.24398 3.6638 2.31216 3.5001C2.38034 3.33641 2.34862 3.12203 2.32929 2.93354C2.30086 2.67323 2.38726 2.48802 2.5845 2.31594C2.87799 2.05854 3.14706 1.77344 3.42669 1.5H3.59075C3.9269 1.83177 4.26596 2.16062 4.59664 2.49823C4.64464 2.5571 4.67136 2.63045 4.67247 2.70641C4.67976 2.93391 4.66554 3.16177 4.67247 3.38927C4.67612 3.45929 4.70366 3.52595 4.75049 3.57812C4.99659 3.83333 5.25544 4.07797 5.49971 4.33573C5.56081 4.40019 5.59778 4.48377 5.60435 4.57234C5.60981 5.60156 5.60435 6.63078 5.60435 7.66C5.60435 7.70557 5.60653 7.75151 5.60216 7.79672C5.5883 7.9462 5.50409 8.02641 5.35388 8.03333C5.28679 8.03661 5.21971 8.03333 5.14825 8.03333V11.9796C5.31341 11.6668 5.45377 11.3485 5.58903 11.028C5.60336 10.98 5.60831 10.9296 5.60362 10.8796C5.60362 10.6383 5.60179 10.3969 5.6058 10.1556C5.60836 9.98932 5.69403 9.9051 5.86101 9.90036C5.94669 9.89672 6.03273 9.90036 6.12133 9.90036C6.13591 9.85151 6.14903 9.81359 6.15778 9.77495C6.33023 9.12891 6.50414 8.48359 6.6744 7.83719C6.84903 7.1751 7.07544 6.52469 7.00872 5.81812C6.98393 5.56036 7.02659 5.52646 7.27159 5.44698C7.3908 4.68135 7.51367 3.91245 7.62888 3.14354C7.67372 2.84422 7.82174 2.63094 8.09409 2.49859C8.11234 2.48888 8.12818 2.47519 8.14042 2.45853C8.15266 2.44187 8.161 2.42266 8.16481 2.40234C8.16481 2.10229 8.16044 1.80224 8.15643 1.50219H8.64862C8.64461 1.77964 8.64315 2.05708 8.63549 2.33417C8.63294 2.42458 8.65336 2.47745 8.74487 2.52083C8.85582 2.57069 8.95236 2.64782 9.02548 2.74504C9.09859 2.84225 9.14592 2.95639 9.16304 3.07682C9.23341 3.49427 9.29357 3.91318 9.35846 4.33135C9.41679 4.7076 9.47513 5.08422 9.5331 5.45573C9.75185 5.5075 9.79815 5.5651 9.79888 5.77875C9.79888 5.85167 9.79669 5.92458 9.79888 5.9975C9.80799 6.23812 9.77883 6.48823 9.83534 6.71682C10.0927 7.74458 10.3742 8.76615 10.648 9.78953C10.6604 9.82681 10.675 9.86333 10.6917 9.89891L10.7184 9.88833V8.97214L10.5087 8.95792V8.5051L10.7187 8.49453V7.10911L10.5094 7.09526V6.64318L10.7224 6.6275V5.24208L10.5116 5.22458V4.77396L10.7304 4.75573V4.59896C10.7304 4.1301 10.7304 3.66089 10.7304 3.19167C10.7304 2.99005 10.8153 2.90328 11.0071 2.89818C11.0651 2.89818 11.123 2.89818 11.1967 2.89818V2.73813C11.1967 2.43297 11.2011 2.12781 11.1949 1.82266C11.1919 1.68339 11.2313 1.5751 11.3516 1.5H14.3048C14.4276 1.57073 14.4732 1.67573 14.4688 1.81792C14.4612 2.06365 14.4666 2.3101 14.4666 2.55583V2.89818H14.5997C14.8699 2.9 14.9366 2.96781 14.9366 3.24016C14.9366 3.61349 14.9366 3.98707 14.9366 4.36088V4.75719L15.1572 4.77505V5.22568L14.9457 5.24318V6.62859L15.1572 6.64026V7.09562L14.9453 7.10583V8.49344L15.159 8.50437V8.96521H14.9439V10.3565L15.1586 10.3707V10.8239L14.9464 10.8392V12.2246C15.1243 12.2184 15.2953 12.214 15.4018 12.3828ZM4.33195 15.0333C4.8369 15.0333 5.31633 15.0301 5.7932 15.0359C5.88763 15.0359 5.92846 15.0049 5.96273 14.9214C6.16034 14.4372 6.36377 13.9553 6.56502 13.4722C6.68436 13.1749 6.87461 12.9113 7.11919 12.7044C8.15278 11.841 9.67784 12.2023 10.2247 13.4452C10.399 13.8408 10.5583 14.2426 10.726 14.641C10.7803 14.7705 10.808 14.9469 10.9083 15.0122C11.0086 15.0774 11.181 15.0333 11.3217 15.0341C11.6984 15.0341 12.0753 15.0341 12.4654 15.0341C12.4487 14.9863 12.4392 14.952 12.425 14.9199C11.9043 13.7474 11.3843 12.5746 10.8649 11.4014C10.8255 11.312 10.7727 11.2974 10.687 11.2974C9.16523 11.2996 7.64322 11.2996 6.12096 11.2974C6.01815 11.2974 5.97148 11.331 5.93065 11.4243C5.43336 12.5523 4.93339 13.6793 4.43075 14.8051C4.3994 14.8733 4.37023 14.944 4.33195 15.0333ZM2.34424 8.0399V15.0268H2.80289V14.1153H3.27211V15.0268H3.73732V14.1091H4.22732C4.35419 13.824 4.48252 13.544 4.60247 13.2589C4.64144 13.1677 4.66272 13.07 4.66518 12.9709C4.66883 11.3764 4.66955 9.782 4.66737 8.18755C4.66737 8.13979 4.66263 8.09167 4.66008 8.0399H2.34424ZM1.87575 4.78307V7.56193H5.12565V4.78307H1.87575ZM6.60695 9.89781C6.90481 9.89781 7.17789 9.90146 7.4506 9.8938C7.48705 9.8938 7.54065 9.8413 7.55304 9.80266C7.64929 9.5037 7.73716 9.20255 7.82758 8.90177C7.94278 8.51872 8.05811 8.13542 8.17357 7.75187C8.20747 7.63995 8.27893 7.56958 8.39997 7.56958C8.52101 7.56958 8.59356 7.63594 8.62856 7.74823C8.64351 7.79599 8.65919 7.84339 8.67341 7.89151C8.86336 8.52297 9.05185 9.15516 9.24508 9.78734C9.2582 9.82964 9.30377 9.89307 9.33586 9.8938C9.61731 9.90219 9.89877 9.89891 10.1872 9.89891C10.1799 9.8537 10.1777 9.82198 10.1697 9.79208C9.92065 8.86021 9.67018 7.9287 9.42445 6.99609C9.40075 6.90713 9.37122 6.86885 9.27169 6.86995C8.69273 6.87457 8.11389 6.87457 7.53518 6.86995C7.43893 6.86995 7.40357 6.90021 7.3795 6.99281C7.23367 7.56083 7.07836 8.12703 6.92705 8.69396C6.82133 9.08807 6.71705 9.48328 6.60695 9.89781ZM13.538 4.75719C13.538 4.51875 13.5351 4.29635 13.538 4.07396C13.5406 3.93214 13.6368 3.83479 13.7648 3.83297C13.8928 3.83115 13.9916 3.92703 14.0007 4.06812C14.0069 4.16802 14.0007 4.26828 14.0029 4.36854V4.755H14.4586V3.36958H11.2091V4.75062H11.6674C11.6674 4.66531 11.6674 4.59276 11.6674 4.52021C11.6674 4.36526 11.6634 4.20995 11.6721 4.05573C11.6729 3.99558 11.6974 3.93819 11.7404 3.8961C11.7834 3.85401 11.8413 3.83066 11.9014 3.83115C12.0239 3.83115 12.118 3.92083 12.1318 4.05609C12.1377 4.11443 12.1355 4.17422 12.1355 4.23328C12.1355 4.405 12.1355 4.57635 12.1355 4.75026H12.6033C12.6033 4.67734 12.6033 4.62047 12.6033 4.56177C12.6033 4.38896 12.6 4.21542 12.6084 4.0426C12.6109 3.98722 12.6341 3.9348 12.6735 3.89576C12.7129 3.85673 12.7655 3.83392 12.8209 3.83188C12.8759 3.82817 12.9304 3.84463 12.9741 3.87818C13.0179 3.91174 13.0479 3.96008 13.0586 4.01417C13.0679 4.06797 13.0717 4.12257 13.0699 4.17714C13.0699 4.36708 13.0699 4.55703 13.0699 4.75464L13.538 4.75719ZM12.1359 10.3554H12.6036V10.215C12.6036 10.028 12.6007 9.8413 12.6076 9.65464C12.6084 9.59661 12.6316 9.54113 12.6724 9.49986C12.7132 9.45859 12.7684 9.43474 12.8264 9.43333C12.8839 9.43125 12.9402 9.45061 12.9844 9.48765C13.0285 9.5247 13.0573 9.57679 13.0652 9.63385C13.0722 9.69263 13.0746 9.75189 13.0721 9.81104C13.0721 9.99151 13.0721 10.172 13.0721 10.3524H13.5395C13.5395 10.1177 13.5362 9.8949 13.5395 9.6725C13.5428 9.51609 13.6697 9.41 13.8086 9.43698C13.9281 9.46031 14.0011 9.55292 14.0033 9.69729C14.0062 9.91604 14.0033 10.1322 14.0033 10.3535H14.4593V8.97286H11.2146V10.355H11.6688V10.1844C11.6688 10.0112 11.6688 9.83802 11.6721 9.66521C11.6747 9.56021 11.7242 9.46724 11.83 9.45339C11.9119 9.4428 11.9948 9.46307 12.0626 9.51026C12.1114 9.55073 12.1308 9.64625 12.1355 9.7188C12.1417 9.92734 12.1359 10.1362 12.1359 10.3561V10.3554ZM12.6036 8.49344V8.32865C12.6036 8.15547 12.6007 7.98229 12.6036 7.80948C12.6076 7.66365 12.6973 7.57141 12.8286 7.56885C12.9598 7.5663 13.0535 7.65599 13.0666 7.79963C13.0721 7.85833 13.0688 7.91776 13.0688 7.97719C13.0688 8.14818 13.0688 8.31917 13.0688 8.49234H13.5359C13.5359 8.27359 13.5359 8.06031 13.5359 7.8474C13.5359 7.66875 13.6197 7.56995 13.7645 7.56885C13.9092 7.56776 13.9981 7.67057 14.0018 7.84302C14.0036 7.93417 14.0018 8.02531 14.0018 8.11646V8.49198H14.4593V7.11349H11.2091V8.49125H11.6692C11.6692 8.41432 11.6692 8.34542 11.6692 8.2787C11.6692 8.11464 11.6652 7.95057 11.6747 7.78687C11.6746 7.75688 11.6807 7.72719 11.6926 7.69965C11.7045 7.67211 11.7219 7.64732 11.7438 7.6268C11.7657 7.60629 11.7915 7.59049 11.8198 7.5804C11.848 7.5703 11.8781 7.56612 11.908 7.56812C12.0287 7.57068 12.1169 7.65198 12.1326 7.78214C12.1374 7.84106 12.139 7.90022 12.1373 7.95932C12.1373 8.13542 12.1373 8.31115 12.1373 8.49307L12.6036 8.49344ZM14.463 6.62786V5.24609H11.2127V6.62495H11.6604C11.6634 6.57828 11.6674 6.54255 11.6674 6.50646C11.6674 6.31505 11.6637 6.12365 11.6714 5.93224C11.6772 5.79297 11.7687 5.70729 11.8952 5.70437C12.0279 5.70109 12.1205 5.78786 12.1329 5.9326C12.1388 6.00078 12.1359 6.06932 12.1359 6.13786C12.1359 6.29974 12.1359 6.46161 12.1359 6.62677H12.6036V6.47146C12.6036 6.28917 12.5909 6.10505 12.6124 5.92458C12.6215 5.84984 12.6926 5.74849 12.7582 5.72443C12.8238 5.70036 12.9387 5.735 12.9999 5.78385C13.0484 5.8225 13.0641 5.9213 13.067 5.99422C13.0754 6.2024 13.0699 6.41094 13.0699 6.62422H13.5373C13.5373 6.39089 13.534 6.16813 13.5373 5.94536C13.5406 5.77802 13.6602 5.67885 13.8144 5.70766C13.9314 5.72953 14 5.8225 14.0018 5.97198C14.004 6.18891 14.0018 6.40583 14.0018 6.62823L14.463 6.62786ZM14.463 12.2136V10.8414H11.1919C11.2565 11.2705 11.4967 11.607 11.6531 11.9818C11.6747 11.8221 11.6674 11.6675 11.6768 11.5136C11.6793 11.4559 11.7042 11.4015 11.7462 11.3618C11.7882 11.3222 11.844 11.3006 11.9018 11.3015C11.9594 11.3004 12.0153 11.3215 12.058 11.3602C12.1007 11.399 12.1269 11.4525 12.1315 11.51C12.1379 11.5871 12.14 11.6645 12.1377 11.7419C12.1377 11.899 12.1377 12.0561 12.1377 12.2129H12.6054C12.6054 12.1509 12.6054 12.0973 12.6054 12.0434C12.6054 11.8658 12.6025 11.6879 12.6105 11.5104C12.616 11.3897 12.6937 11.3186 12.8114 11.3055C12.8639 11.2956 12.9181 11.3061 12.9631 11.335C13.008 11.3638 13.0402 11.4086 13.0531 11.4604C13.0662 11.5133 13.0713 11.5679 13.0685 11.6223C13.0706 11.817 13.0685 12.0117 13.0685 12.2122H13.5362C13.5362 11.9807 13.5256 11.7576 13.5421 11.5363C13.5476 11.4955 13.5617 11.4563 13.5834 11.4214C13.6052 11.3865 13.6341 11.3565 13.6682 11.3335C13.7042 11.3183 13.7433 11.3118 13.7822 11.3148C13.8212 11.3178 13.8588 11.3301 13.8921 11.3507C13.9541 11.4129 13.9913 11.4956 13.9967 11.5833C14.0113 11.7907 14.0014 11.9996 14.0014 12.2147L14.463 12.2136ZM14.0065 15.0297V14.8707C14.0065 14.5287 14.0022 14.1871 14.0084 13.8452C14.0097 13.7549 14.0289 13.6659 14.0648 13.5831C14.1007 13.5003 14.1526 13.4254 14.2175 13.3628C14.2824 13.3001 14.359 13.2509 14.443 13.2179C14.527 13.1849 14.6167 13.1689 14.7069 13.1707C14.7798 13.1707 14.8556 13.1838 14.9278 13.1904V12.7197H11.9609L12.2755 13.4241C12.2891 13.4178 12.3022 13.4103 12.3145 13.4018C12.5424 13.1685 12.8129 13.101 13.1126 13.2279C13.4214 13.3584 13.5428 13.6147 13.5406 13.9407C13.5384 14.2549 13.5406 14.5692 13.5406 14.8839C13.5406 14.9316 13.5446 14.9797 13.5468 15.0297H14.0065ZM10.7253 10.3718H6.08122V10.8228H10.7209L10.7253 10.3718ZM11.6798 2.88505H12.1359C12.1523 2.69729 12.0866 2.44245 12.3699 2.44026C12.6616 2.43807 12.5887 2.70276 12.6164 2.88469H13.0688C13.0892 2.69766 13.0185 2.44099 13.3043 2.44026C13.5902 2.43953 13.5267 2.70167 13.549 2.88469H14.0011V1.97615H11.6798V2.88505ZM9.06205 5.46083C8.97711 4.91396 8.89362 4.37766 8.81013 3.83917H7.9931C7.90924 4.38057 7.82612 4.9176 7.74226 5.46083H9.06205ZM4.80226 4.28797C4.65643 4.14615 4.54086 4.02547 4.41581 3.91536C4.36976 3.87463 4.3116 3.85017 4.25028 3.84573C3.74935 3.84063 3.24841 3.84208 2.74747 3.84573C2.70742 3.84253 2.66743 3.85266 2.63372 3.87453C2.49336 3.99995 2.35883 4.13156 2.22247 4.26099L2.24653 4.28979L4.80226 4.28797ZM7.47721 6.38797H9.32638V5.93917H7.47721V6.38797ZM2.80763 2.91276V3.35354H4.19304V2.91094L2.80763 2.91276ZM14.9344 15.0286C14.9344 14.6323 14.9373 14.2513 14.9344 13.8703C14.9359 13.8394 14.931 13.8085 14.92 13.7796C14.9089 13.7508 14.8919 13.7245 14.8702 13.7025C14.8484 13.6806 14.8222 13.6634 14.7934 13.6521C14.7646 13.6408 14.7338 13.6357 14.7029 13.637C14.5658 13.637 14.4747 13.7314 14.4728 13.8845C14.4699 14.1252 14.4728 14.3658 14.4728 14.6064V15.0286H14.9344ZM8.78534 9.89089C8.66065 9.47672 8.53924 9.0724 8.41747 8.66771H8.38575C8.26398 9.0724 8.14258 9.47708 8.01825 9.89016L8.78534 9.89089ZM13.032 15.0414L13.0685 15.0187C13.0685 14.6327 13.0685 14.2462 13.0685 13.8601C13.0685 13.8291 13.0637 13.7846 13.044 13.7704C12.9748 13.7205 12.8982 13.6443 12.8253 13.6479C12.7524 13.6516 12.6379 13.7299 12.6273 13.7905C12.6022 13.9337 12.596 14.0964 12.6404 14.2316C12.7225 14.4806 12.8453 14.7165 12.9547 14.956C12.976 14.9883 13.002 15.017 13.032 15.0414ZM8.72481 3.35609C8.7219 3.06078 8.60487 2.89891 8.40106 2.89964C8.19726 2.90036 8.07987 3.06443 8.07987 3.35609H8.72481ZM3.5233 2.10667L3.16492 2.42312H3.8445L3.5233 2.10667Z" fill="#667085"/>
<path d="M2.80945 8.50684H3.26117V9.88642H2.81127L2.80945 8.50684Z" fill="#667085"/>
<path d="M4.19343 8.51047V9.88969H3.74426V8.51047H4.19343Z" fill="#667085"/>
<path d="M3.26122 10.3763V11.7562H2.80841V10.3763H3.26122Z" fill="#667085"/>
<path d="M2.80765 13.6275V12.242H3.25608V13.6275H2.80765Z" fill="#667085"/>
<path d="M3.7417 10.3722H4.18977V11.7554H3.7417V10.3722Z" fill="#667085"/>
<path d="M4.18799 13.6276H3.74246C3.73882 13.5842 3.73335 13.5448 3.73335 13.5054C3.73335 13.1284 3.73736 12.7511 3.73007 12.3752C3.72788 12.2589 3.76653 12.2236 3.8759 12.233C3.9747 12.2411 4.07496 12.233 4.18653 12.233L4.18799 13.6276Z" fill="#667085"/>
<path d="M3.49814 5.23585C3.74482 5.23449 3.98199 5.33096 4.15768 5.50413C4.33337 5.67729 4.43327 5.91303 4.43548 6.15971C4.43568 6.40865 4.33723 6.64752 4.16168 6.82402C3.98614 7.00052 3.7478 7.10027 3.49887 7.10143C3.25231 7.0995 3.0165 7.00021 2.84284 6.82517C2.66917 6.65014 2.57173 6.41357 2.57173 6.167C2.57096 6.0449 2.59437 5.92386 2.64059 5.81085C2.68682 5.69784 2.75495 5.5951 2.84107 5.50854C2.92718 5.42199 3.02958 5.35333 3.14235 5.30653C3.25512 5.25973 3.37604 5.23571 3.49814 5.23585ZM3.0384 6.17174C3.03893 6.23312 3.05155 6.29379 3.07556 6.35028C3.09956 6.40677 3.13448 6.45797 3.1783 6.50094C3.22212 6.54392 3.274 6.57783 3.33094 6.60073C3.38789 6.62363 3.4488 6.63507 3.51017 6.6344C3.63183 6.63058 3.74735 6.5801 3.8328 6.49342C3.91826 6.40675 3.96709 6.29052 3.96918 6.16882C3.96933 6.1074 3.95729 6.04655 3.93376 5.98981C3.91023 5.93306 3.87569 5.88155 3.83211 5.83825C3.78854 5.79495 3.73682 5.76073 3.67993 5.73755C3.62304 5.71438 3.56212 5.70272 3.50069 5.70325C3.43926 5.70255 3.37832 5.71423 3.32151 5.7376C3.26469 5.76098 3.21317 5.79556 3.17002 5.83929C3.12687 5.88302 3.09298 5.93499 3.07036 5.99211C3.04775 6.04923 3.03688 6.11032 3.0384 6.17174Z" fill="#667085"/>
<g clip-path="url(#clip0_70_1719)">
<path d="M15.4018 12.3828V15.5H10.0424V15.0304H10.3764C10.3596 14.9827 10.3498 14.9484 10.3363 14.9159C10.1635 14.5003 9.99429 14.0832 9.81565 13.6702C9.54987 13.0551 9.08357 12.719 8.40872 12.7047C7.77653 12.6916 7.24643 13.0587 6.98685 13.6698C6.81112 14.0843 6.6394 14.5003 6.46659 14.9159C6.45237 14.9506 6.44362 14.9889 6.42721 15.0399H6.76117V15.5H1.40179V15.0352H1.85971V8.03516C1.68435 8.03078 1.49841 8.06615 1.40179 7.86964V4.45312C1.57607 4.27375 1.75034 4.0945 1.92461 3.91536C2.05804 3.77828 2.24398 3.6638 2.31216 3.5001C2.38034 3.33641 2.34862 3.12203 2.32929 2.93354C2.30086 2.67323 2.38726 2.48802 2.5845 2.31594C2.87799 2.05854 3.14706 1.77344 3.42669 1.5H3.59075C3.9269 1.83177 4.26596 2.16062 4.59664 2.49823C4.64464 2.5571 4.67136 2.63045 4.67247 2.70641C4.67976 2.93391 4.66554 3.16177 4.67247 3.38927C4.67612 3.45929 4.70366 3.52595 4.75049 3.57812C4.99659 3.83333 5.25544 4.07797 5.49971 4.33573C5.56081 4.40019 5.59778 4.48377 5.60435 4.57234C5.60981 5.60156 5.60435 6.63078 5.60435 7.66C5.60435 7.70557 5.60653 7.75151 5.60216 7.79672C5.5883 7.9462 5.50409 8.02641 5.35388 8.03333C5.28679 8.03661 5.21971 8.03333 5.14825 8.03333V11.9796C5.31341 11.6668 5.45377 11.3485 5.58903 11.028C5.60336 10.98 5.60831 10.9296 5.60362 10.8796C5.60362 10.6383 5.60179 10.3969 5.6058 10.1556C5.60836 9.98932 5.69403 9.9051 5.86101 9.90036C5.94669 9.89672 6.03273 9.90036 6.12133 9.90036C6.13591 9.85151 6.14903 9.81359 6.15778 9.77495C6.33023 9.12891 6.50414 8.48359 6.6744 7.83719C6.84903 7.1751 7.07544 6.52469 7.00872 5.81812C6.98393 5.56036 7.02659 5.52646 7.27159 5.44698C7.3908 4.68135 7.51367 3.91245 7.62888 3.14354C7.67372 2.84422 7.82174 2.63094 8.09409 2.49859C8.11234 2.48888 8.12818 2.47519 8.14042 2.45853C8.15266 2.44187 8.161 2.42266 8.16481 2.40234C8.16481 2.10229 8.16044 1.80224 8.15643 1.50219H8.64862C8.64461 1.77964 8.64315 2.05708 8.63549 2.33417C8.63294 2.42458 8.65336 2.47745 8.74487 2.52083C8.85582 2.57069 8.95236 2.64782 9.02548 2.74504C9.09859 2.84225 9.14592 2.95639 9.16304 3.07682C9.23341 3.49427 9.29357 3.91318 9.35846 4.33135C9.41679 4.7076 9.47513 5.08422 9.5331 5.45573C9.75185 5.5075 9.79815 5.5651 9.79888 5.77875C9.79888 5.85167 9.79669 5.92458 9.79888 5.9975C9.80799 6.23812 9.77883 6.48823 9.83534 6.71682C10.0927 7.74458 10.3742 8.76615 10.648 9.78953C10.6604 9.82681 10.675 9.86333 10.6917 9.89891L10.7184 9.88833V8.97214L10.5087 8.95792V8.5051L10.7187 8.49453V7.10911L10.5094 7.09526V6.64318L10.7224 6.6275V5.24208L10.5116 5.22458V4.77396L10.7304 4.75573V4.59896C10.7304 4.1301 10.7304 3.66089 10.7304 3.19167C10.7304 2.99005 10.8153 2.90328 11.0071 2.89818C11.0651 2.89818 11.123 2.89818 11.1967 2.89818V2.73813C11.1967 2.43297 11.2011 2.12781 11.1949 1.82266C11.1919 1.68339 11.2313 1.5751 11.3516 1.5H14.3048C14.4276 1.57073 14.4732 1.67573 14.4688 1.81792C14.4612 2.06365 14.4666 2.3101 14.4666 2.55583V2.89818H14.5997C14.8699 2.9 14.9366 2.96781 14.9366 3.24016C14.9366 3.61349 14.9366 3.98707 14.9366 4.36088V4.75719L15.1572 4.77505V5.22568L14.9457 5.24318V6.62859L15.1572 6.64026V7.09562L14.9453 7.10583V8.49344L15.159 8.50437V8.96521H14.9439V10.3565L15.1586 10.3707V10.8239L14.9464 10.8392V12.2246C15.1243 12.2184 15.2953 12.214 15.4018 12.3828ZM4.33195 15.0333C4.8369 15.0333 5.31633 15.0301 5.7932 15.0359C5.88763 15.0359 5.92846 15.0049 5.96273 14.9214C6.16034 14.4372 6.36377 13.9553 6.56502 13.4722C6.68436 13.1749 6.87461 12.9113 7.11919 12.7044C8.15278 11.841 9.67784 12.2023 10.2247 13.4452C10.399 13.8408 10.5583 14.2426 10.726 14.641C10.7803 14.7705 10.808 14.9469 10.9083 15.0122C11.0086 15.0774 11.181 15.0333 11.3217 15.0341C11.6984 15.0341 12.0753 15.0341 12.4654 15.0341C12.4487 14.9863 12.4392 14.952 12.425 14.9199C11.9043 13.7474 11.3843 12.5746 10.8649 11.4014C10.8255 11.312 10.7727 11.2974 10.687 11.2974C9.16523 11.2996 7.64322 11.2996 6.12096 11.2974C6.01815 11.2974 5.97148 11.331 5.93065 11.4243C5.43336 12.5523 4.93339 13.6793 4.43075 14.8051C4.3994 14.8733 4.37023 14.944 4.33195 15.0333ZM2.34424 8.0399V15.0268H2.80289V14.1153H3.27211V15.0268H3.73732V14.1091H4.22732C4.35419 13.824 4.48252 13.544 4.60247 13.2589C4.64144 13.1677 4.66272 13.07 4.66518 12.9709C4.66883 11.3764 4.66955 9.782 4.66737 8.18755C4.66737 8.13979 4.66263 8.09167 4.66008 8.0399H2.34424ZM1.87575 4.78307V7.56193H5.12565V4.78307H1.87575ZM6.60695 9.89781C6.90481 9.89781 7.17789 9.90146 7.4506 9.8938C7.48705 9.8938 7.54065 9.8413 7.55304 9.80266C7.64929 9.5037 7.73716 9.20255 7.82758 8.90177C7.94278 8.51872 8.05811 8.13542 8.17357 7.75187C8.20747 7.63995 8.27893 7.56958 8.39997 7.56958C8.52101 7.56958 8.59356 7.63594 8.62856 7.74823C8.64351 7.79599 8.65919 7.84339 8.67341 7.89151C8.86336 8.52297 9.05185 9.15516 9.24508 9.78734C9.2582 9.82964 9.30377 9.89307 9.33586 9.8938C9.61731 9.90219 9.89877 9.89891 10.1872 9.89891C10.1799 9.8537 10.1777 9.82198 10.1697 9.79208C9.92065 8.86021 9.67018 7.9287 9.42445 6.99609C9.40075 6.90713 9.37122 6.86885 9.27169 6.86995C8.69273 6.87457 8.11389 6.87457 7.53518 6.86995C7.43893 6.86995 7.40357 6.90021 7.3795 6.99281C7.23367 7.56083 7.07836 8.12703 6.92705 8.69396C6.82133 9.08807 6.71705 9.48328 6.60695 9.89781ZM13.538 4.75719C13.538 4.51875 13.5351 4.29635 13.538 4.07396C13.5406 3.93214 13.6368 3.83479 13.7648 3.83297C13.8928 3.83115 13.9916 3.92703 14.0007 4.06812C14.0069 4.16802 14.0007 4.26828 14.0029 4.36854V4.755H14.4586V3.36958H11.2091V4.75062H11.6674C11.6674 4.66531 11.6674 4.59276 11.6674 4.52021C11.6674 4.36526 11.6634 4.20995 11.6721 4.05573C11.6729 3.99558 11.6974 3.93819 11.7404 3.8961C11.7834 3.85401 11.8413 3.83066 11.9014 3.83115C12.0239 3.83115 12.118 3.92083 12.1318 4.05609C12.1377 4.11443 12.1355 4.17422 12.1355 4.23328C12.1355 4.405 12.1355 4.57635 12.1355 4.75026H12.6033C12.6033 4.67734 12.6033 4.62047 12.6033 4.56177C12.6033 4.38896 12.6 4.21542 12.6084 4.0426C12.6109 3.98722 12.6341 3.9348 12.6735 3.89576C12.7129 3.85673 12.7655 3.83392 12.8209 3.83188C12.8759 3.82817 12.9304 3.84463 12.9741 3.87818C13.0179 3.91174 13.0479 3.96008 13.0586 4.01417C13.0679 4.06797 13.0717 4.12257 13.0699 4.17714C13.0699 4.36708 13.0699 4.55703 13.0699 4.75464L13.538 4.75719ZM12.1359 10.3554H12.6036V10.215C12.6036 10.028 12.6007 9.8413 12.6076 9.65464C12.6084 9.59661 12.6316 9.54113 12.6724 9.49986C12.7132 9.45859 12.7684 9.43474 12.8264 9.43333C12.8839 9.43125 12.9402 9.45061 12.9844 9.48765C13.0285 9.5247 13.0573 9.57679 13.0652 9.63385C13.0722 9.69263 13.0746 9.75189 13.0721 9.81104C13.0721 9.99151 13.0721 10.172 13.0721 10.3524H13.5395C13.5395 10.1177 13.5362 9.8949 13.5395 9.6725C13.5428 9.51609 13.6697 9.41 13.8086 9.43698C13.9281 9.46031 14.0011 9.55292 14.0033 9.69729C14.0062 9.91604 14.0033 10.1322 14.0033 10.3535H14.4593V8.97286H11.2146V10.355H11.6688V10.1844C11.6688 10.0112 11.6688 9.83802 11.6721 9.66521C11.6747 9.56021 11.7242 9.46724 11.83 9.45339C11.9119 9.4428 11.9948 9.46307 12.0626 9.51026C12.1114 9.55073 12.1308 9.64625 12.1355 9.7188C12.1417 9.92734 12.1359 10.1362 12.1359 10.3561V10.3554ZM12.6036 8.49344V8.32865C12.6036 8.15547 12.6007 7.98229 12.6036 7.80948C12.6076 7.66365 12.6973 7.57141 12.8286 7.56885C12.9598 7.5663 13.0535 7.65599 13.0666 7.79963C13.0721 7.85833 13.0688 7.91776 13.0688 7.97719C13.0688 8.14818 13.0688 8.31917 13.0688 8.49234H13.5359C13.5359 8.27359 13.5359 8.06031 13.5359 7.8474C13.5359 7.66875 13.6197 7.56995 13.7645 7.56885C13.9092 7.56776 13.9981 7.67057 14.0018 7.84302C14.0036 7.93417 14.0018 8.02531 14.0018 8.11646V8.49198H14.4593V7.11349H11.2091V8.49125H11.6692C11.6692 8.41432 11.6692 8.34542 11.6692 8.2787C11.6692 8.11464 11.6652 7.95057 11.6747 7.78687C11.6746 7.75688 11.6807 7.72719 11.6926 7.69965C11.7045 7.67211 11.7219 7.64732 11.7438 7.6268C11.7657 7.60629 11.7915 7.59049 11.8198 7.5804C11.848 7.5703 11.8781 7.56612 11.908 7.56812C12.0287 7.57068 12.1169 7.65198 12.1326 7.78214C12.1374 7.84106 12.139 7.90022 12.1373 7.95932C12.1373 8.13542 12.1373 8.31115 12.1373 8.49307L12.6036 8.49344ZM14.463 6.62786V5.24609H11.2127V6.62495H11.6604C11.6634 6.57828 11.6674 6.54255 11.6674 6.50646C11.6674 6.31505 11.6637 6.12365 11.6714 5.93224C11.6772 5.79297 11.7687 5.70729 11.8952 5.70437C12.0279 5.70109 12.1205 5.78786 12.1329 5.9326C12.1388 6.00078 12.1359 6.06932 12.1359 6.13786C12.1359 6.29974 12.1359 6.46161 12.1359 6.62677H12.6036V6.47146C12.6036 6.28917 12.5909 6.10505 12.6124 5.92458C12.6215 5.84984 12.6926 5.74849 12.7582 5.72443C12.8238 5.70036 12.9387 5.735 12.9999 5.78385C13.0484 5.8225 13.0641 5.9213 13.067 5.99422C13.0754 6.2024 13.0699 6.41094 13.0699 6.62422H13.5373C13.5373 6.39089 13.534 6.16813 13.5373 5.94536C13.5406 5.77802 13.6602 5.67885 13.8144 5.70766C13.9314 5.72953 14 5.8225 14.0018 5.97198C14.004 6.18891 14.0018 6.40583 14.0018 6.62823L14.463 6.62786ZM14.463 12.2136V10.8414H11.1919C11.2565 11.2705 11.4967 11.607 11.6531 11.9818C11.6747 11.8221 11.6674 11.6675 11.6768 11.5136C11.6793 11.4559 11.7042 11.4015 11.7462 11.3618C11.7882 11.3222 11.844 11.3006 11.9018 11.3015C11.9594 11.3004 12.0153 11.3215 12.058 11.3602C12.1007 11.399 12.1269 11.4525 12.1315 11.51C12.1379 11.5871 12.14 11.6645 12.1377 11.7419C12.1377 11.899 12.1377 12.0561 12.1377 12.2129H12.6054C12.6054 12.1509 12.6054 12.0973 12.6054 12.0434C12.6054 11.8658 12.6025 11.6879 12.6105 11.5104C12.616 11.3897 12.6937 11.3186 12.8114 11.3055C12.8639 11.2956 12.9181 11.3061 12.9631 11.335C13.008 11.3638 13.0402 11.4086 13.0531 11.4604C13.0662 11.5133 13.0713 11.5679 13.0685 11.6223C13.0706 11.817 13.0685 12.0117 13.0685 12.2122H13.5362C13.5362 11.9807 13.5256 11.7576 13.5421 11.5363C13.5476 11.4955 13.5617 11.4563 13.5834 11.4214C13.6052 11.3865 13.6341 11.3565 13.6682 11.3335C13.7042 11.3183 13.7433 11.3118 13.7822 11.3148C13.8212 11.3178 13.8588 11.3301 13.8921 11.3507C13.9541 11.4129 13.9913 11.4956 13.9967 11.5833C14.0113 11.7907 14.0014 11.9996 14.0014 12.2147L14.463 12.2136ZM14.0065 15.0297V14.8707C14.0065 14.5287 14.0022 14.1871 14.0084 13.8452C14.0097 13.7549 14.0289 13.6659 14.0648 13.5831C14.1007 13.5003 14.1526 13.4254 14.2175 13.3628C14.2824 13.3001 14.359 13.2509 14.443 13.2179C14.527 13.1849 14.6167 13.1689 14.7069 13.1707C14.7798 13.1707 14.8556 13.1838 14.9278 13.1904V12.7197H11.9609L12.2755 13.4241C12.2891 13.4178 12.3022 13.4103 12.3145 13.4018C12.5424 13.1685 12.8129 13.101 13.1126 13.2279C13.4214 13.3584 13.5428 13.6147 13.5406 13.9407C13.5384 14.2549 13.5406 14.5692 13.5406 14.8839C13.5406 14.9316 13.5446 14.9797 13.5468 15.0297H14.0065ZM10.7253 10.3718H6.08122V10.8228H10.7209L10.7253 10.3718ZM11.6798 2.88505H12.1359C12.1523 2.69729 12.0866 2.44245 12.3699 2.44026C12.6616 2.43807 12.5887 2.70276 12.6164 2.88469H13.0688C13.0892 2.69766 13.0185 2.44099 13.3043 2.44026C13.5902 2.43953 13.5267 2.70167 13.549 2.88469H14.0011V1.97615H11.6798V2.88505ZM9.06205 5.46083C8.97711 4.91396 8.89362 4.37766 8.81013 3.83917H7.9931C7.90924 4.38057 7.82612 4.9176 7.74226 5.46083H9.06205ZM4.80226 4.28797C4.65643 4.14615 4.54086 4.02547 4.41581 3.91536C4.36976 3.87463 4.3116 3.85017 4.25028 3.84573C3.74935 3.84063 3.24841 3.84208 2.74747 3.84573C2.70742 3.84253 2.66743 3.85266 2.63372 3.87453C2.49336 3.99995 2.35883 4.13156 2.22247 4.26099L2.24653 4.28979L4.80226 4.28797ZM7.47721 6.38797H9.32638V5.93917H7.47721V6.38797ZM2.80763 2.91276V3.35354H4.19304V2.91094L2.80763 2.91276ZM14.9344 15.0286C14.9344 14.6323 14.9373 14.2513 14.9344 13.8703C14.9359 13.8394 14.931 13.8085 14.92 13.7796C14.9089 13.7508 14.8919 13.7245 14.8702 13.7025C14.8484 13.6806 14.8222 13.6634 14.7934 13.6521C14.7646 13.6408 14.7338 13.6357 14.7029 13.637C14.5658 13.637 14.4747 13.7314 14.4728 13.8845C14.4699 14.1252 14.4728 14.3658 14.4728 14.6064V15.0286H14.9344ZM8.78534 9.89089C8.66065 9.47672 8.53924 9.0724 8.41747 8.66771H8.38575C8.26398 9.0724 8.14258 9.47708 8.01825 9.89016L8.78534 9.89089ZM13.032 15.0414L13.0685 15.0187C13.0685 14.6327 13.0685 14.2462 13.0685 13.8601C13.0685 13.8291 13.0637 13.7846 13.044 13.7704C12.9748 13.7205 12.8982 13.6443 12.8253 13.6479C12.7524 13.6516 12.6379 13.7299 12.6273 13.7905C12.6022 13.9337 12.596 14.0964 12.6404 14.2316C12.7225 14.4806 12.8453 14.7165 12.9547 14.956C12.976 14.9883 13.002 15.017 13.032 15.0414ZM8.72481 3.35609C8.7219 3.06078 8.60487 2.89891 8.40106 2.89964C8.19726 2.90036 8.07987 3.06443 8.07987 3.35609H8.72481ZM3.5233 2.10667L3.16492 2.42312H3.8445L3.5233 2.10667Z" fill="#667085"/>
<path d="M2.80945 8.50693H3.26117V9.88651H2.81127L2.80945 8.50693Z" fill="#667085"/>
<path d="M4.1934 8.51057V9.88979H3.74423V8.51057H4.1934Z" fill="#667085"/>
<path d="M3.26116 10.3761V11.7561H2.80835V10.3761H3.26116Z" fill="#667085"/>
<path d="M2.80762 13.6275V12.2421H3.25605V13.6275H2.80762Z" fill="#667085"/>
<path d="M3.7417 10.3721H4.18977V11.7554H3.7417V10.3721Z" fill="#667085"/>
<path d="M4.18796 13.6275H3.74243C3.73879 13.5841 3.73332 13.5447 3.73332 13.5054C3.73332 13.1284 3.73733 12.751 3.73004 12.3752C3.72785 12.2589 3.7665 12.2235 3.87587 12.233C3.97467 12.241 4.07493 12.233 4.1865 12.233L4.18796 13.6275Z" fill="#667085"/>
<path d="M3.49814 5.23588C3.74482 5.23452 3.98199 5.33099 4.15768 5.50416C4.33337 5.67732 4.43327 5.91306 4.43548 6.15974C4.43568 6.40868 4.33723 6.64755 4.16168 6.82405C3.98614 7.00055 3.7478 7.1003 3.49887 7.10146C3.25231 7.09953 3.0165 7.00024 2.84284 6.82521C2.66917 6.65017 2.57173 6.4136 2.57173 6.16703C2.57096 6.04493 2.59437 5.92389 2.64059 5.81088C2.68682 5.69787 2.75495 5.59513 2.84107 5.50857C2.92718 5.42202 3.02958 5.35336 3.14235 5.30656C3.25512 5.25976 3.37604 5.23574 3.49814 5.23588ZM3.0384 6.17177C3.03893 6.23315 3.05155 6.29382 3.07556 6.35031C3.09956 6.4068 3.13448 6.458 3.1783 6.50097C3.22212 6.54395 3.274 6.57786 3.33094 6.60076C3.38789 6.62366 3.4488 6.6351 3.51017 6.63443C3.63183 6.63061 3.74735 6.58013 3.8328 6.49345C3.91826 6.40678 3.96709 6.29055 3.96918 6.16885C3.96933 6.10743 3.95729 6.04658 3.93376 5.98984C3.91023 5.93309 3.87569 5.88158 3.83211 5.83828C3.78854 5.79498 3.73682 5.76076 3.67993 5.73758C3.62304 5.71441 3.56212 5.70275 3.50069 5.70328C3.43926 5.70258 3.37832 5.71426 3.32151 5.73763C3.26469 5.76101 3.21317 5.79559 3.17002 5.83932C3.12687 5.88305 3.09298 5.93502 3.07036 5.99214C3.04775 6.04926 3.03688 6.11036 3.0384 6.17177Z" fill="#667085"/>
</g>
<defs>
<clipPath id="clip0_70_1719">
<rect width="14" height="14" fill="white" transform="translate(1.40179 1.5)"/>
</clipPath>
</defs>
</svg>
