<svg width="10" height="11" viewBox="0 0 10 11" fill="none" xmlns="http://www.w3.org/2000/svg">
<path d="M5.875 6C5.875 5.83424 5.94085 5.67527 6.05806 5.55806C6.17527 5.44085 6.33424 5.375 6.5 5.375C6.66576 5.375 6.82473 5.44085 6.94194 5.55806C7.05915 5.67527 7.125 5.83424 7.125 6C7.125 6.16576 7.05915 6.32473 6.94194 6.44194C6.82473 6.55915 6.66576 6.625 6.5 6.625C6.33424 6.625 6.17527 6.55915 6.05806 6.44194C5.94085 6.32473 5.875 6.16576 5.875 6ZM10 5.5V10.5H0V5.5C0 2.75 2.25 0.5 5 0.5C7.75 0.5 10 2.75 10 5.5ZM1 5.5C1 7.705 2.795 9.5 5 9.5C7.205 9.5 9 7.705 9 5.5C9 5.105 8.94 4.725 8.835 4.37C7.86837 4.59456 6.85673 4.52562 5.9295 4.17201C5.00228 3.8184 4.20163 3.19619 3.63 2.385C3.14 3.58 2.205 4.545 1.025 5.07C1 5.21 1 5.355 1 5.5ZM3.5 6.625C3.66576 6.625 3.82473 6.55915 3.94194 6.44194C4.05915 6.32473 4.125 6.16576 4.125 6C4.125 5.83424 4.05915 5.67527 3.94194 5.55806C3.82473 5.44085 3.66576 5.375 3.5 5.375C3.33424 5.375 3.17527 5.44085 3.05806 5.55806C2.94085 5.67527 2.875 5.83424 2.875 6C2.875 6.16576 2.94085 6.32473 3.05806 6.44194C3.17527 6.55915 3.33424 6.625 3.5 6.625Z" fill="#667085"/>
</svg>
