<svg width="10" height="11" viewBox="0 0 10 11" fill="none" xmlns="http://www.w3.org/2000/svg">
<path d="M3.5 5.375C3.33424 5.375 3.17527 5.44085 3.05806 5.55806C2.94085 5.67527 2.875 5.83424 2.875 6C2.875 6.16576 2.94085 6.32473 3.05806 6.44194C3.17527 6.55915 3.33424 6.625 3.5 6.625C3.58208 6.625 3.66335 6.60883 3.73918 6.57742C3.81501 6.54602 3.88391 6.49998 3.94194 6.44194C3.99998 6.3839 4.04602 6.31501 4.07742 6.23918C4.10883 6.16335 4.125 6.08208 4.125 6C4.125 5.91792 4.10883 5.83665 4.07742 5.76082C4.04602 5.68499 3.99998 5.6161 3.94194 5.55806C3.88391 5.50002 3.81501 5.45398 3.73918 5.42258C3.66335 5.39117 3.58208 5.375 3.5 5.375ZM6.5 5.375C6.33424 5.375 6.17527 5.44085 6.05806 5.55806C5.94085 5.67527 5.875 5.83424 5.875 6C5.875 6.16576 5.94085 6.32473 6.05806 6.44194C6.17527 6.55915 6.33424 6.625 6.5 6.625C6.66576 6.625 6.82473 6.55915 6.94194 6.44194C7.05915 6.32473 7.125 6.16576 7.125 6C7.125 5.83424 7.05915 5.67527 6.94194 5.55806C6.82473 5.44085 6.66576 5.375 6.5 5.375ZM5 0.5C4.34339 0.5 3.69321 0.629329 3.08658 0.880602C2.47995 1.13188 1.92876 1.50017 1.46447 1.96447C0.526784 2.90215 0 4.17392 0 5.5C0 6.82608 0.526784 8.09785 1.46447 9.03553C1.92876 9.49983 2.47995 9.86812 3.08658 10.1194C3.69321 10.3707 4.34339 10.5 5 10.5C6.32608 10.5 7.59785 9.97322 8.53553 9.03553C9.47322 8.09785 10 6.82608 10 5.5C10 4.84339 9.87067 4.19321 9.6194 3.58658C9.36812 2.97995 8.99983 2.42876 8.53553 1.96447C8.07124 1.50017 7.52005 1.13188 6.91342 0.880602C6.30679 0.629329 5.65661 0.5 5 0.5ZM5 9.5C2.795 9.5 1 7.705 1 5.5C1 5.355 1 5.21 1.025 5.07C2.205 4.545 3.14 3.58 3.63 2.385C4.20163 3.19619 5.00228 3.8184 5.9295 4.17201C6.85673 4.52562 7.86837 4.59456 8.835 4.37C8.94 4.725 9 5.105 9 5.5C9 7.705 7.205 9.5 5 9.5Z" fill="#667085"/>
</svg>
