<svg width="17" height="17" viewBox="0 0 17 17" fill="none" xmlns="http://www.w3.org/2000/svg">
<path d="M14.6958 15.5H1.89892C1.62439 15.403 1.51757 15.2061 1.52887 14.9196C1.5409 14.606 1.53288 14.2914 1.52887 13.9775C1.52872 13.9356 1.51344 13.8952 1.48585 13.8637C1.42582 13.8128 1.36262 13.7656 1.29663 13.7227V13.5586C1.39507 13.3657 1.58137 13.4004 1.7622 13.3945V13.225C1.7622 11.4577 1.7622 9.69049 1.7622 7.92323C1.76044 7.87778 1.76105 7.83226 1.76403 7.78687C1.76732 7.72688 1.79381 7.67053 1.8379 7.62971C1.88198 7.58889 1.94021 7.5668 2.00028 7.56812C2.03005 7.56773 2.05961 7.57331 2.08719 7.58454C2.11477 7.59576 2.13982 7.6124 2.16086 7.63348C2.1819 7.65455 2.1985 7.67963 2.20968 7.70723C2.22086 7.73483 2.2264 7.76439 2.22595 7.79417C2.23142 7.97646 2.22595 8.15875 2.22595 8.34104C2.22595 8.54484 2.22595 8.74828 2.22595 8.95792H3.38861V8.50766C3.25663 8.47703 3.1633 8.4063 3.1622 8.26776C3.1622 8.12193 3.26356 8.05521 3.39262 8.02203C3.39262 7.99432 3.39627 7.97172 3.3959 7.94911C3.38606 7.32458 3.65111 6.84625 4.16153 6.49516C4.2709 6.42224 4.3595 6.32161 4.45648 6.23266C4.49389 6.19954 4.52289 6.15801 4.54108 6.11148C4.55928 6.06495 4.56614 6.01476 4.56111 5.96505C4.55272 5.81047 4.55637 5.65516 4.56111 5.50057C4.56512 5.33432 4.65335 5.23771 4.79299 5.23734C4.93262 5.23698 5.02304 5.33286 5.02705 5.49875C5.03106 5.66464 5.02705 5.83599 5.02705 6.00443C5.03229 6.07574 5.05755 6.14412 5.09992 6.20171C5.14229 6.25931 5.20006 6.30377 5.26658 6.33C5.29684 6.16594 5.31799 5.99823 5.35918 5.83599C5.56554 5.02589 6.02892 4.40172 6.73658 3.95875C7.24258 3.64696 7.67057 3.22358 7.98783 2.72099C8.0293 2.652 8.05251 2.57358 8.05528 2.49313C8.06403 2.27036 8.0633 2.04688 8.05528 1.82375C8.05127 1.68557 8.08991 1.57583 8.20913 1.5H8.37319C8.49241 1.57583 8.53106 1.68594 8.52705 1.82411C8.52048 2.04286 8.5183 2.26161 8.52887 2.48036C8.53176 2.56946 8.55682 2.65642 8.60179 2.73339C8.91046 3.22207 9.3264 3.63402 9.81804 3.93797C10.4116 4.31021 10.8538 4.81297 11.101 5.46922C11.2064 5.75031 11.2622 6.05 11.3413 6.34422C11.4663 6.24286 11.5885 6.1324 11.5658 5.9275C11.5572 5.79569 11.5563 5.66348 11.5633 5.53156C11.5658 5.34161 11.6461 5.2399 11.7933 5.23807C11.9406 5.23625 12.0292 5.34016 12.0311 5.53776C12.0311 5.68797 12.0227 5.83927 12.0351 5.98838C12.039 6.06812 12.0678 6.14462 12.1175 6.20713C12.2361 6.33247 12.3654 6.44726 12.5039 6.55021C12.8685 6.82109 13.0997 7.17219 13.1722 7.62172C13.1937 7.75516 13.1952 7.89187 13.2057 8.02896C13.3344 8.05739 13.4274 8.12812 13.4285 8.26703C13.4285 8.41286 13.3286 8.48104 13.2068 8.51021V8.95719H14.3655V8.82448C14.3655 8.49198 14.3655 8.15948 14.3655 7.82661C14.3655 7.67094 14.4548 7.57469 14.5904 7.57141C14.7261 7.56812 14.8245 7.66802 14.8303 7.82661C14.8303 7.86781 14.8303 7.90865 14.8303 7.94984V13.3982C15.0126 13.3953 15.1949 13.3676 15.2963 13.5586V13.6953L15.0618 13.9279C15.0618 14.2345 15.0535 14.5791 15.0648 14.9229C15.0753 15.2083 14.9685 15.4034 14.6958 15.5ZM8.04726 15.026C8.05282 15.0152 8.05687 15.0037 8.05929 14.9918C8.06111 14.8733 8.06184 14.7552 8.0633 14.6367C8.06585 14.4412 8.15226 14.3311 8.30028 14.3333C8.4483 14.3355 8.5296 14.4449 8.53106 14.6429C8.53106 14.7686 8.53106 14.8948 8.53106 15.0239H9.46585C9.46585 14.8828 9.46585 14.7511 9.46585 14.6199C9.46585 14.4427 9.5497 14.3384 9.68934 14.3337C9.82897 14.329 9.92923 14.4383 9.93179 14.6181C9.93361 14.7533 9.93179 14.8882 9.93179 15.0235H10.8535C10.8577 15.0117 10.8608 14.9995 10.8626 14.987C10.8626 14.8638 10.8626 14.7409 10.8626 14.6177C10.8644 14.4427 10.9482 14.3373 11.0882 14.333C11.2282 14.3286 11.3267 14.4394 11.3281 14.6192C11.3281 14.7541 11.3281 14.889 11.3281 15.0235H12.2498C12.2525 15.016 12.2546 15.0083 12.256 15.0005C12.256 14.8685 12.256 14.7366 12.26 14.6046C12.2629 14.442 12.3515 14.337 12.4872 14.333C12.6228 14.329 12.7234 14.4365 12.7256 14.6053C12.7256 14.7446 12.7256 14.8839 12.7256 15.0231H13.6586C13.6586 14.8773 13.6564 14.7398 13.6586 14.6031C13.6622 14.4405 13.7526 14.3362 13.8882 14.3326C14.0239 14.329 14.1216 14.4354 14.1241 14.6068C14.1263 14.7464 14.1241 14.886 14.1241 15.0257H14.5824V13.8736H2.00429V15.026H2.4633C2.4633 14.866 2.44944 14.7107 2.4695 14.5597C2.47934 14.4868 2.53913 14.3906 2.60184 14.3621C2.64093 14.3497 2.68233 14.3461 2.72297 14.3518C2.76361 14.3575 2.80246 14.3722 2.83663 14.3949C2.89059 14.4351 2.9172 14.5331 2.9245 14.609C2.93799 14.7468 2.92851 14.8864 2.92851 15.0253H3.86111V14.7213C3.86111 14.6713 3.86111 14.621 3.86111 14.571C3.8684 14.431 3.96429 14.3326 4.09153 14.3319C4.12243 14.332 4.15301 14.3382 4.1815 14.3502C4.20998 14.3622 4.23581 14.3797 4.25747 14.4017C4.27914 14.4238 4.29622 14.4499 4.30773 14.4786C4.31923 14.5073 4.32493 14.538 4.3245 14.5689C4.32996 14.7216 4.3245 14.8744 4.3245 15.0257H5.25674C5.25674 14.8831 5.25674 14.7475 5.25674 14.6122C5.25856 14.4409 5.3497 14.3326 5.48898 14.3315C5.62825 14.3304 5.72049 14.4387 5.72231 14.6097C5.72231 14.749 5.72231 14.8879 5.72231 15.0249H6.65528C6.65528 14.8791 6.65236 14.7373 6.65528 14.5973C6.65929 14.4365 6.75408 14.3322 6.8897 14.3322C7.02533 14.3322 7.11757 14.4351 7.12049 14.5977C7.12267 14.7377 7.12049 14.8777 7.12049 15.0249L8.04726 15.026ZM5.73762 6.38979H10.8454C10.8396 6.32307 10.8385 6.26474 10.8287 6.2075C10.6927 5.40359 10.2781 4.78307 9.5909 4.3463C9.11228 4.04382 8.69405 3.65501 8.35752 3.19969C8.34272 3.1812 8.32651 3.16389 8.30903 3.14792C8.07533 3.39583 7.86387 3.65469 7.61632 3.87307C7.36877 4.09146 7.0771 4.27411 6.80731 4.47536C6.16892 4.95115 5.8171 5.58661 5.73762 6.39016V6.38979ZM10.623 8.74318H5.97825V13.3898H6.43397V13.221C6.43397 12.0638 6.43397 10.9066 6.43397 9.74943C6.43397 9.36989 6.60278 9.20255 6.98522 9.20255H9.59564C10.0022 9.20255 10.1622 9.36516 10.1622 9.77641C10.1622 10.929 10.1622 12.0815 10.1622 13.2341V13.3902H10.6227L10.623 8.74318ZM11.1047 13.3872H12.4923V9.43953H11.1047V13.3872ZM4.10684 9.4388V13.3872H5.49226V9.43917L4.10684 9.4388ZM12.9772 9.43516V13.3872H14.3545V9.43552L12.9772 9.43516ZM3.61611 13.3927V9.43953H2.23799V13.3927H3.61611ZM6.90648 13.3883H7.58788C7.59481 13.2742 7.59444 13.1696 7.60866 13.066C7.63118 12.8997 7.71331 12.7473 7.83978 12.637C7.96624 12.5267 8.12845 12.466 8.29627 12.4663C8.46417 12.4655 8.62665 12.5258 8.75346 12.6358C8.88028 12.7459 8.96281 12.8982 8.98569 13.0646C9.00028 13.1707 9.00064 13.2793 9.00757 13.3865H9.68825V12.0109H6.90648V13.3883ZM5.7347 7.31911H10.8575V6.87615H5.7347V7.31911ZM9.68168 11.5297C9.72908 11.2552 9.68168 11.0247 9.50778 10.8078C9.17783 10.4002 8.78736 10.063 8.36116 9.76401C8.34141 9.75369 8.31946 9.7483 8.29718 9.7483C8.2749 9.7483 8.25294 9.75369 8.23319 9.76401C7.77345 10.0874 7.35163 10.4502 7.01403 10.9073C6.86819 11.1071 6.90465 11.3131 6.90465 11.533H7.57913C7.597 11.3755 7.59517 11.2315 7.63127 11.0977C7.71877 10.7724 8.0272 10.5752 8.37319 10.6044C8.52832 10.6204 8.67345 10.6884 8.78494 10.7975C8.89643 10.9065 8.96771 11.0501 8.98715 11.2048C9.00101 11.3106 9.00174 11.4185 9.00866 11.5286L9.68168 11.5297ZM5.97387 8.25609H10.6201V7.80729H5.97387V8.25609ZM11.7919 6.57536C11.7048 6.65156 11.626 6.74672 11.5257 6.8025C11.3518 6.89839 11.3099 7.0362 11.3296 7.21849C11.346 7.37161 11.334 7.53458 11.2089 7.63557C11.0678 7.75005 11.089 7.88057 11.1072 8.02568H12.723C12.7595 7.63557 12.6461 7.3038 12.3665 7.0413C12.1878 6.87615 11.9877 6.73323 11.7919 6.57536ZM5.48898 8.02604C5.49809 7.88276 5.52726 7.75625 5.39345 7.63922C5.31872 7.57359 5.29028 7.44234 5.26731 7.33516C5.24689 7.23927 5.26731 7.13573 5.26111 7.03583C5.26236 6.9962 5.24943 6.95742 5.22465 6.92646C5.08429 6.80578 4.93809 6.69167 4.79736 6.57828C4.61507 6.72411 4.42512 6.86047 4.25377 7.01578C3.95517 7.28484 3.83121 7.625 3.87205 8.02531L5.48898 8.02604ZM5.48898 8.51021H3.87168V8.95937H5.48898V8.51021ZM12.7223 8.50729H11.1047V8.95609H12.7223V8.50729ZM8.52778 11.526C8.52194 11.3707 8.58465 11.1979 8.41366 11.1064C8.37388 11.0897 8.33087 11.082 8.28775 11.0838C8.24462 11.0857 8.20246 11.0972 8.16429 11.1173C8.0108 11.2154 8.07423 11.3806 8.06549 11.526H8.52778ZM6.90319 10.2865L7.54851 9.68161H6.90319V10.2865ZM8.06804 13.3872H8.52923C8.52559 13.2312 8.58028 13.0639 8.41658 12.9749C8.37924 12.958 8.33872 12.9492 8.29772 12.9492C8.25673 12.9492 8.2162 12.958 8.17887 12.9749C8.01554 13.0653 8.06986 13.2319 8.06804 13.3872ZM9.04038 9.67359L9.68642 10.2792V9.67359H9.04038Z" fill="#667085"/>
</svg>
