<svg width="12" height="11" viewBox="0 0 12 11" fill="none" xmlns="http://www.w3.org/2000/svg">
<path d="M8.99999 7.41844C9.72794 7.78413 10.3521 8.37098 10.8076 9.10481C10.8978 9.25014 10.9429 9.3228 10.9585 9.42342C10.9902 9.62789 10.8504 9.87927 10.66 9.96018C10.5663 10 10.4608 10 10.25 10M7.99999 5.26612C8.74085 4.89794 9.24999 4.13343 9.24999 3.25C9.24999 2.36657 8.74085 1.60206 7.99999 1.23388M6.99999 3.25C6.99999 4.49264 5.99264 5.5 4.74999 5.5C3.50735 5.5 2.49999 4.49264 2.49999 3.25C2.49999 2.00736 3.50735 1 4.74999 1C5.99264 1 6.99999 2.00736 6.99999 3.25ZM1.27961 8.96917C2.07676 7.77228 3.33468 7 4.74999 7C6.16531 7 7.42323 7.77228 8.22038 8.96917C8.39501 9.23138 8.48233 9.36248 8.47228 9.52996C8.46445 9.66036 8.37897 9.82 8.27478 9.8988C8.14096 10 7.95691 10 7.58882 10H1.91117C1.54308 10 1.35903 10 1.22521 9.8988C1.12102 9.82 1.03554 9.66036 1.02771 9.52996C1.01766 9.36248 1.10498 9.23138 1.27961 8.96917Z" stroke="#667085" stroke-linecap="round" stroke-linejoin="round"/>
</svg>
