<svg width="18" height="13" viewBox="0 0 18 13" fill="none" xmlns="http://www.w3.org/2000/svg">
<path d="M14.826 3.90805C14.4786 3.66657 14.1033 3.65641 13.7168 3.74862C13.2755 3.85374 12.9118 4.08468 12.5815 4.36289C11.9948 4.85798 11.3325 5.22959 10.5605 5.44099C10.2024 5.53985 9.8365 5.58909 9.4655 5.54063C8.78139 5.45193 8.32546 4.97482 8.28128 4.32147C8.2208 3.41687 8.99713 2.83074 10.0179 3.01244C10.1269 3.03159 10.2324 3.05738 10.3568 3.08317C10.3259 2.822 10.2102 2.57518 10.0244 2.37433C9.49895 1.79015 8.80841 1.50764 7.98748 1.50021C6.95552 1.49123 6.15475 1.92614 5.48651 2.61035C4.99884 3.10935 4.61282 3.67125 4.23152 4.23707C3.93129 4.68136 3.56672 5.06274 3.03659 5.29211C2.62097 5.47069 2.17877 5.56838 1.73056 5.63832C1.59331 5.65942 1.45563 5.6774 1.31752 5.6942C1.13395 5.71413 1.03144 5.64692 1.00485 5.4957C0.978254 5.34447 1.06146 5.26124 1.24546 5.22764C1.60789 5.16394 1.97461 5.11041 2.3306 5.02991C2.93107 4.89432 3.387 4.57664 3.71769 4.09952C4.03251 3.64625 4.34261 3.18867 4.68703 2.75415C5.10006 2.23366 5.58001 1.76984 6.20064 1.44043C7.45735 0.773016 8.98254 0.867579 10.0398 1.70067C10.603 2.14457 10.9229 2.69905 10.8865 3.39616C10.8727 3.65992 10.7231 3.72752 10.4546 3.63062C10.2191 3.54582 9.96818 3.46025 9.71984 3.44891C9.05975 3.41922 8.69046 3.87875 8.87532 4.45746C9.00871 4.87791 9.3068 5.08267 9.80176 5.07798C10.2504 5.07446 10.6639 4.94278 11.0628 4.76811C11.5016 4.57298 11.9069 4.32063 12.2658 4.01903C12.7038 3.65719 13.1884 3.36412 13.7773 3.2508C14.4807 3.11521 15.0666 3.31098 15.532 3.80528C15.7349 4.02098 15.6607 4.19799 15.351 4.2527C15.0332 4.30897 14.8003 4.46605 14.6857 4.74544C14.5738 5.01897 14.7162 5.2925 15.013 5.40504C15.363 5.53751 15.7156 5.51562 16.0668 5.41754C16.2508 5.36635 16.4293 5.30032 16.6107 5.24014C16.7853 5.18348 16.9199 5.22373 16.9778 5.34916C17.0387 5.48085 16.9727 5.6012 16.7977 5.66997C16.2984 5.86535 15.7919 6.05487 15.2343 5.98531C15.0023 5.9564 14.7492 5.89817 14.5605 5.78056C13.9068 5.37339 13.8901 4.61923 14.5005 4.13C14.5978 4.05185 14.7072 3.98894 14.826 3.90805Z" fill="#667085"/>
<path d="M15.2555 7.99313C14.5782 7.98581 13.9026 7.85546 13.2873 7.53985C13.2586 7.52109 13.2237 7.51061 13.1875 7.50988C13.1514 7.50916 13.1159 7.51824 13.0862 7.53582C11.7628 8.15827 10.4334 8.14911 9.10955 7.54204C9.02012 7.5014 8.96492 7.50872 8.88063 7.54717C7.56535 8.14582 6.24536 8.15204 4.92707 7.55486C4.82695 7.50946 4.75849 7.50396 4.65537 7.55266C3.54975 8.07808 2.39962 8.11543 1.21911 7.76576C1.04796 7.7156 0.969663 7.5988 1.01074 7.48419C1.05182 7.36959 1.23495 7.29782 1.39583 7.33224C1.71117 7.39998 2.02266 7.49188 2.34271 7.52666C3.1407 7.6207 3.95109 7.45829 4.61729 7.07081C4.75806 6.99063 4.87017 6.98807 5.01008 7.07081C6.09817 7.70681 7.68558 7.71669 8.78479 7.09864C9.02183 6.96536 9.03167 6.96793 9.26743 7.10157C9.93363 7.4787 10.6739 7.5933 11.4564 7.54094C12.0353 7.50794 12.5924 7.33948 13.067 7.05397C13.1838 6.98331 13.2886 6.99099 13.4058 7.0569C14.4135 7.62369 15.484 7.69436 16.6055 7.34982C16.7865 7.29416 16.9208 7.33151 16.9782 7.45966C17.0393 7.59733 16.9713 7.70791 16.7826 7.76466C16.2922 7.91358 15.7759 7.99081 15.2555 7.99313Z" fill="#667085"/>
<path d="M15.3143 9.992C14.6147 9.9839 13.9375 9.85324 13.3194 9.53452C13.2901 9.51626 13.2548 9.50643 13.2186 9.50643C13.1823 9.50643 13.147 9.51626 13.1177 9.53452C11.7902 10.158 10.4593 10.1484 9.13003 9.53857C9.09825 9.52042 9.06091 9.51073 9.02273 9.51073C8.98454 9.51073 8.94721 9.52042 8.91543 9.53857C7.58177 10.1532 6.24654 10.1538 4.90973 9.54041C4.82947 9.5036 4.77711 9.49735 4.69513 9.53783C3.57922 10.0774 2.41696 10.1193 1.22121 9.76528C1.04481 9.71302 0.966272 9.59193 1.01348 9.47085C1.0607 9.34976 1.21821 9.29124 1.39976 9.34792C2.38176 9.65156 3.34316 9.62432 4.28139 9.22021C4.39125 9.1723 4.49671 9.1173 4.59685 9.05569C4.71874 8.98209 4.82647 8.98687 4.95094 9.05569C6.07157 9.68137 7.2407 9.70014 8.44117 9.24671C8.58077 9.18828 8.71468 9.12034 8.84161 9.04355C8.94976 8.98319 9.04676 8.98724 9.15492 9.04539C10.455 9.74467 11.758 9.73326 13.0606 9.04723C13.1079 9.01729 13.1652 9.00135 13.224 9.00182C13.2828 9.00228 13.3398 9.01913 13.3864 9.04981C14.401 9.62248 15.4787 9.69682 16.6088 9.34424C16.7882 9.2883 16.9187 9.32878 16.9779 9.46238C17.0371 9.59598 16.9779 9.69903 16.7933 9.76123C16.3209 9.91503 15.8196 9.99325 15.3143 9.992Z" fill="#667085"/>
<path d="M15.3279 11.9938C14.6133 11.9851 13.9361 11.855 13.3186 11.5383C13.2426 11.4992 13.1924 11.5054 13.1173 11.5401C11.789 12.1582 10.4565 12.1484 9.12949 11.5401C9.0975 11.5223 9.06006 11.513 9.02187 11.5134C8.98369 11.5137 8.94648 11.5236 8.91491 11.5419C7.58021 12.1508 6.24493 12.1508 4.90909 11.5419C4.87752 11.5234 4.84011 11.5135 4.8018 11.5135C4.76348 11.5135 4.72607 11.5234 4.69451 11.5419C3.57868 12.0757 2.41564 12.1173 1.21828 11.7648C1.04232 11.7133 0.96507 11.5912 1.01485 11.4696C1.06464 11.3479 1.21914 11.2942 1.40453 11.3516C2.29934 11.6274 3.189 11.6278 4.06836 11.3088C4.24917 11.2401 4.42276 11.1583 4.58722 11.0644C4.71596 10.9932 4.82497 10.9877 4.95544 11.0622C5.52636 11.3832 6.19518 11.5548 6.87936 11.5559C7.56354 11.557 8.23313 11.3876 8.80547 11.0685C8.94023 10.9925 9.05138 10.9884 9.18657 11.0666C10.2994 11.7114 11.8761 11.7187 12.9971 11.0889C13.2096 10.9698 13.2379 10.9709 13.4417 11.0889C14.1207 11.4798 14.879 11.6044 15.6794 11.5346C15.9944 11.5068 16.303 11.4166 16.6111 11.3439C16.7858 11.3023 16.9137 11.3319 16.9733 11.4557C17.039 11.5923 16.9836 11.6954 16.8051 11.7564C16.3341 11.9125 15.8333 11.993 15.3279 11.9938Z" fill="#667085"/>
</svg>
