<svg width="10" height="11" viewBox="0 0 10 11" fill="none" xmlns="http://www.w3.org/2000/svg">
<path d="M4.99999 7C3.41495 7 2.00539 7.76532 1.10798 8.95298C0.914839 9.2086 0.818266 9.33641 0.821425 9.50914C0.823866 9.64259 0.907667 9.81095 1.01267 9.89335C1.14858 10 1.33692 10 1.7136 10H8.28637C8.66305 10 8.85139 10 8.9873 9.89335C9.09231 9.81095 9.17611 9.64259 9.17855 9.50914C9.18171 9.33641 9.08513 9.2086 8.89199 8.95298C7.99459 7.76532 6.58502 7 4.99999 7Z" stroke="#667085" stroke-linecap="round" stroke-linejoin="round"/>
<path d="M4.99999 5.5C6.24263 5.5 7.24999 4.49264 7.24999 3.25C7.24999 2.00736 6.24263 1 4.99999 1C3.75735 1 2.74999 2.00736 2.74999 3.25C2.74999 4.49264 3.75735 5.5 4.99999 5.5Z" stroke="#667085" stroke-linecap="round" stroke-linejoin="round"/>
</svg>
