<svg width="18" height="15" viewBox="0 0 18 15" fill="none" xmlns="http://www.w3.org/2000/svg">
<path d="M1.16436 10.5719C1.25221 10.4672 1.36506 10.4407 1.49938 10.4426C1.91796 10.4489 2.33693 10.445 2.77075 10.445C2.77465 10.3883 2.78051 10.3423 2.78051 10.2958C2.78051 9.62225 2.77856 8.94908 2.78363 8.27552C2.78363 8.16541 2.7481 8.12987 2.64345 8.10371C2.13584 7.97564 1.69032 7.73589 1.34983 7.3259C1.32523 7.29583 1.30102 7.26498 1.27876 7.23297C1.13741 7.02836 1.21355 6.86397 1.46072 6.83C1.81761 6.78119 2.17684 6.74293 2.53022 6.67381C2.95826 6.59509 3.36632 6.43182 3.73052 6.19354C3.85937 6.10763 3.92575 6.01002 3.91248 5.84563C3.89956 5.65061 3.89956 5.45495 3.91248 5.25992C3.91834 5.14669 3.87851 5.09983 3.77191 5.06469C3.32951 4.92529 2.94958 4.68789 2.65595 4.3228C2.63122 4.29257 2.60815 4.26103 2.58683 4.2283C2.47321 4.05025 2.54779 3.89484 2.7563 3.8558C3.07648 3.79566 3.40292 3.75193 3.71139 3.65275C4.28015 3.47232 4.76665 3.09634 5.08467 2.59146C5.18775 2.43215 5.25647 2.26776 5.23539 2.07096C5.22758 1.9589 5.22758 1.84644 5.23539 1.73438C5.23929 1.59576 5.32324 1.50361 5.44429 1.50009C5.56534 1.49658 5.66764 1.59146 5.6731 1.73438C5.67818 1.8605 5.6731 1.9874 5.6731 2.13578H9.77303C9.81716 2.13578 9.86128 2.13383 9.90462 2.13578C10.0304 2.14749 10.103 2.22012 10.1092 2.34312C10.1155 2.46612 10.0436 2.54421 9.92336 2.5692C9.87511 2.5758 9.82631 2.5775 9.77772 2.57428H5.73636C5.66647 2.57428 5.60126 2.56061 5.55323 2.64925C5.07217 3.53288 4.30139 4.01198 3.3381 4.21776C3.29905 4.22557 3.26274 4.23611 3.17879 4.25681C3.33107 4.35404 3.44938 4.44111 3.57745 4.50905C3.9296 4.69229 4.32189 4.78476 4.7188 4.77809C7.34796 4.77809 9.97816 4.77809 12.6094 4.77809C13.1033 4.77809 13.5645 4.65587 13.976 4.37161C14.0225 4.33959 14.0655 4.30171 14.1076 4.26891C13.8206 4.17559 13.5372 4.10257 13.2689 3.99285C12.6275 3.73836 12.0959 3.2665 11.7672 2.65979C11.7504 2.63669 11.729 2.61746 11.7042 2.60338C11.6794 2.5893 11.6519 2.58071 11.6235 2.57818C11.3603 2.56998 11.0967 2.57545 10.8332 2.57389C10.6574 2.57389 10.5622 2.49579 10.5598 2.35913C10.5563 2.21426 10.6524 2.135 10.8363 2.13422C11.0901 2.13422 11.3439 2.13422 11.5977 2.13422C11.6071 2.13422 11.6164 2.13109 11.6516 2.12524C11.6516 2.01083 11.6516 1.89095 11.6516 1.77381C11.6539 1.60513 11.7387 1.50049 11.8722 1.50049C12.0057 1.50049 12.0893 1.60162 12.0916 1.77186C12.0975 1.85949 12.0975 1.94741 12.0916 2.03504C12.0608 2.2744 12.1533 2.4708 12.2849 2.65979C12.7437 3.32007 13.3919 3.66798 14.1674 3.8066C14.297 3.82963 14.4286 3.84096 14.5578 3.85853C14.7843 3.88938 14.8605 4.05689 14.7277 4.24588C14.4755 4.60394 14.1295 4.84251 13.7293 5.00729C13.4169 5.13615 13.4169 5.13419 13.4169 5.46961C13.4227 5.60611 13.4216 5.74281 13.4138 5.87921C13.4001 6.01548 13.4591 6.0967 13.5629 6.16972C14.0221 6.4899 14.545 6.63828 15.0858 6.73434C15.3349 6.77807 15.5899 6.78939 15.839 6.83391C15.93 6.84992 16.0381 6.89951 16.0912 6.96979C16.1642 7.06585 16.0955 7.17283 16.0272 7.26108C15.6781 7.71363 15.2099 7.97486 14.6641 8.10996C14.5914 8.12792 14.5418 8.14237 14.5426 8.23647C14.5461 8.94439 14.5446 9.65192 14.545 10.3595C14.5476 10.3884 14.5517 10.4172 14.5575 10.4457H15.1865C15.4157 10.4457 15.6453 10.45 15.8745 10.4457C16.0057 10.4422 16.1018 10.4848 16.1615 10.6019V13.3547C16.0932 13.4426 16.0127 13.4996 15.8929 13.4988C15.4294 13.4953 14.9659 13.4988 14.5024 13.4965C14.338 13.4965 14.2349 13.3993 14.2408 13.2649C14.2466 13.1306 14.3419 13.0576 14.5063 13.0572C14.8577 13.0572 15.2091 13.0572 15.5606 13.0572H15.7129V10.8975H10.251C10.2534 10.911 10.2574 10.9241 10.2631 10.9366C10.7855 11.6233 11.3094 12.3093 11.8347 12.9947C11.8749 13.0335 11.9288 13.0548 11.9847 13.0541C12.3458 13.0592 12.7066 13.0568 13.0678 13.0568C13.2384 13.0568 13.4095 13.0568 13.5801 13.0588C13.6914 13.0611 13.7812 13.1224 13.7804 13.2298C13.7734 13.3169 13.7358 13.3986 13.6742 13.4606C13.6352 13.4996 13.5465 13.4965 13.479 13.4965C9.47771 13.498 5.4767 13.4992 1.47595 13.5C1.3428 13.5 1.23933 13.4649 1.16357 13.3551L1.16436 10.5719ZM15.4376 7.24507C15.1849 7.19899 14.9581 7.16463 14.7347 7.11504C14.1732 6.99087 13.6387 6.80267 13.1822 6.43524C13.1202 6.38567 13.0441 6.35697 12.9647 6.35324C12.0276 6.34777 11.0905 6.34933 10.1533 6.34933C8.94289 6.34933 7.73244 6.34933 6.52198 6.34933C6.33026 6.34933 6.22523 6.26499 6.22991 6.12013C6.2346 5.98151 6.33261 5.90967 6.52238 5.90888C6.7711 5.90888 7.02022 5.90888 7.26895 5.90888H7.7547V5.22361H4.35761V5.9081H4.52434C4.87069 5.9081 5.21743 5.9081 5.56377 5.91084C5.59194 5.90974 5.62005 5.91422 5.64648 5.92402C5.67291 5.93382 5.69715 5.94875 5.71779 5.96794C5.73844 5.98713 5.75509 6.01022 5.76678 6.03587C5.77848 6.06151 5.78499 6.08922 5.78595 6.11739C5.78719 6.17413 5.76689 6.22923 5.72915 6.27161C5.69141 6.31399 5.63902 6.3405 5.58252 6.34582C5.54361 6.34992 5.50445 6.3511 5.46537 6.34933C5.08974 6.34933 4.71372 6.34933 4.33809 6.34933C4.28772 6.34933 4.22368 6.35558 4.18971 6.38565C3.72388 6.79642 3.15887 6.9858 2.56887 7.117C2.34943 7.1658 2.12725 7.19939 1.88672 7.24351C1.93475 7.28256 1.96482 7.30872 1.99449 7.33097C2.41815 7.63554 2.89843 7.75815 3.41268 7.75815C6.88707 7.75971 10.3623 7.75971 13.8382 7.75815C13.999 7.75894 14.1596 7.74837 14.3189 7.72652C14.7254 7.66912 15.0979 7.52738 15.4376 7.24507ZM1.61222 13.049C1.65127 13.0517 1.67353 13.0553 1.69735 13.0553C2.91249 13.0553 4.12763 13.0553 5.34277 13.0517C5.41156 13.0443 5.4746 13.0099 5.51809 12.9561C5.90465 12.4594 6.28458 11.9576 6.66607 11.4571C6.8039 11.2763 6.9394 11.0951 7.09207 10.896H1.61222V13.049ZM12.9655 5.22361H9.56608V5.89951H12.9651L12.9655 5.22361ZM11.3185 13.0517C11.2127 12.9127 11.1299 12.7944 11.0362 12.6859C11.0003 12.6499 10.9519 12.6292 10.9011 12.6281C9.40951 12.625 7.91765 12.625 6.42554 12.6281C6.38883 12.6281 6.33651 12.6281 6.31777 12.6515C6.2139 12.7745 6.11824 12.9045 6.00344 13.0533L11.3185 13.0517ZM9.54812 10.4356C9.54812 10.2517 9.55827 10.0764 9.54578 9.90261C9.51532 9.47309 9.19709 9.14939 8.76055 9.08887C8.37554 9.03537 7.97765 9.2759 7.83162 9.65349C7.73361 9.9069 7.77422 10.1689 7.77539 10.4344L9.54812 10.4356ZM10.6516 12.1771C10.554 12.0486 10.477 11.9358 10.3869 11.8354C10.346 11.7916 10.2903 11.7646 10.2307 11.7597C9.18238 11.7553 8.1341 11.7553 7.08582 11.7597C7.04363 11.7569 7.00191 11.7699 6.96868 11.796C6.8695 11.9131 6.7793 12.0389 6.67271 12.1787L10.6516 12.1771ZM4.29475 10.4356C4.29475 10.1361 4.30802 9.84403 4.29084 9.55352C4.27561 9.29308 4.03782 9.09121 3.7762 9.08262C3.52123 9.07442 3.26859 9.25482 3.24517 9.51213C3.21861 9.81514 3.23892 10.122 3.23892 10.4368L4.29475 10.4356ZM14.1002 10.4383C14.1002 10.1685 14.1002 9.91588 14.1002 9.66325C14.0998 9.61937 14.0956 9.57561 14.0877 9.53244C14.0675 9.40868 14.0045 9.29592 13.9098 9.21374C13.8151 9.13157 13.6946 9.08517 13.5692 9.08262C13.3146 9.07871 13.0635 9.26067 13.0409 9.5176C13.0139 9.82022 13.0346 10.1271 13.0346 10.4383H14.1002ZM5.81563 10.4383V9.69058C5.81636 9.65148 5.81493 9.61238 5.81133 9.57344C5.79828 9.44362 5.73923 9.32275 5.64485 9.23266C5.55047 9.14257 5.42698 9.08922 5.29669 9.08223C5.04328 9.07091 4.78674 9.24505 4.76058 9.50511C4.72934 9.81123 4.75316 10.1228 4.75316 10.4372L5.81563 10.4383ZM12.5848 10.4383V10.2907C12.5848 10.0565 12.5914 9.82217 12.5809 9.58789C12.5738 9.45985 12.5209 9.33863 12.4319 9.24632C12.3428 9.15401 12.2236 9.09674 12.0959 9.08496C11.8589 9.0588 11.5754 9.21382 11.5493 9.45005C11.5102 9.77336 11.5395 10.1045 11.5395 10.4379L12.5848 10.4383ZM7.31581 10.4383C7.31581 10.1228 7.33221 9.821 7.31112 9.52151C7.29316 9.27161 7.04248 9.08184 6.78672 9.08418C6.53097 9.08652 6.2838 9.27942 6.26701 9.52853C6.24709 9.82802 6.26232 10.1295 6.26232 10.4383H7.31581ZM11.0643 10.4383C11.0643 10.1334 11.0741 9.84599 11.0616 9.55977C11.0506 9.30831 10.8273 9.10527 10.5688 9.08457C10.3193 9.06427 10.0428 9.24076 10.0198 9.48949C9.99052 9.80186 10.0128 10.117 10.0128 10.4383H11.0643ZM9.54734 8.21265H7.78554V8.96275C8.38023 8.5305 8.96086 8.54221 9.54734 8.96275V8.21265ZM9.9874 11.3067C9.88549 11.1732 9.80818 11.0603 9.71837 10.9588C9.68059 10.9189 9.62915 10.8946 9.57428 10.8909C8.96554 10.8862 8.3568 10.8874 7.74806 10.8909C7.70552 10.8889 7.66376 10.9028 7.63092 10.9299C7.53252 11.0471 7.44349 11.1712 7.33807 11.3102L9.9874 11.3067ZM8.2174 5.9081C8.49971 5.9081 8.77577 5.91006 9.05145 5.90381C9.07331 5.90381 9.11158 5.84641 9.11314 5.81439C9.11939 5.64922 9.12017 5.48366 9.11314 5.31849C9.11314 5.2853 9.06628 5.22673 9.04012 5.22595C8.76914 5.21932 8.49815 5.22205 8.21818 5.22205L8.2174 5.9081ZM3.23462 8.20719V8.79484C3.59346 8.58946 3.94176 8.59961 4.28889 8.79055V8.20602L3.23462 8.20719ZM5.80703 8.79289V8.20875H4.7473V8.79445C5.10224 8.59375 5.45093 8.59375 5.80586 8.7925L5.80703 8.79289ZM12.5766 8.79055V8.20914H11.518V8.79484C11.8749 8.58946 12.2236 8.59727 12.5754 8.78899L12.5766 8.79055ZM13.0315 8.79484C13.3911 8.59063 13.739 8.59766 14.0912 8.79016V8.20953H13.0315V8.79484ZM6.26935 8.20914V8.78899C6.62429 8.59141 6.9679 8.59375 7.31698 8.78899V8.20719L6.26935 8.20914ZM10.0089 8.20914V8.79172C10.3658 8.58907 10.7117 8.59922 11.0604 8.78899V8.20875L10.0089 8.20914Z" fill="#667085"/>
</svg>
